<mxfile host="app.diagrams.net" agent="Mozilla/5.0 (Macintosh; Intel Mac OS X 10_15_7) AppleWebKit/537.36 (KHTML, like Gecko) Chrome/136.0.0.0 Safari/537.36" version="27.0.3" pages="7">
  <diagram name="Fan" id="YDDO5uCfyVdy_s-r5hqp">
    <mxGraphModel dx="681" dy="802" grid="0" gridSize="10" guides="1" tooltips="1" connect="1" arrows="1" fold="1" page="0" pageScale="1" pageWidth="827" pageHeight="1169" math="0" shadow="0">
      <root>
        <mxCell id="0" />
        <mxCell id="1" parent="0" />
        <mxCell id="JM-H49FMi5Isf11ecGoP-1" value="&lt;font style=&quot;font-size: 72px;&quot;&gt;FAN&lt;/font&gt;" style="text;html=1;align=center;verticalAlign=middle;whiteSpace=wrap;rounded=0;container=0;" vertex="1" parent="1">
          <mxGeometry x="372.12733333333335" y="90" width="111.06400000000001" height="55.53191489361702" as="geometry" />
        </mxCell>
        <mxCell id="JM-H49FMi5Isf11ecGoP-2" value="" style="group" vertex="1" connectable="0" parent="1">
          <mxGeometry x="150" y="242.5531914893617" width="111.06400000000002" height="138.82978723404253" as="geometry" />
        </mxCell>
        <mxCell id="JM-H49FMi5Isf11ecGoP-3" value="Алексей" style="shape=umlActor;verticalLabelPosition=bottom;verticalAlign=top;html=1;outlineConnect=0;container=0;" vertex="1" parent="JM-H49FMi5Isf11ecGoP-2">
          <mxGeometry x="23.13833333333332" y="9.255319148936167" width="64.78733333333334" height="129.5744680851064" as="geometry" />
        </mxCell>
        <mxCell id="JM-H49FMi5Isf11ecGoP-4" value="1" style="text;html=1;align=center;verticalAlign=middle;whiteSpace=wrap;rounded=0;container=0;" vertex="1" parent="JM-H49FMi5Isf11ecGoP-2">
          <mxGeometry width="111.06400000000001" height="55.53191489361703" as="geometry" />
        </mxCell>
        <mxCell id="JM-H49FMi5Isf11ecGoP-5" value="" style="group" vertex="1" connectable="0" parent="1">
          <mxGeometry x="261.064" y="242.5531914893617" width="111.06400000000002" height="138.82978723404253" as="geometry" />
        </mxCell>
        <mxCell id="JM-H49FMi5Isf11ecGoP-6" value="Мария" style="shape=umlActor;verticalLabelPosition=bottom;verticalAlign=top;html=1;outlineConnect=0;container=0;" vertex="1" parent="JM-H49FMi5Isf11ecGoP-5">
          <mxGeometry x="23.13833333333332" y="9.255319148936167" width="64.78733333333334" height="129.5744680851064" as="geometry" />
        </mxCell>
        <mxCell id="JM-H49FMi5Isf11ecGoP-7" value="2" style="text;html=1;align=center;verticalAlign=middle;whiteSpace=wrap;rounded=0;container=0;" vertex="1" parent="JM-H49FMi5Isf11ecGoP-5">
          <mxGeometry width="111.06400000000001" height="55.53191489361703" as="geometry" />
        </mxCell>
        <mxCell id="JM-H49FMi5Isf11ecGoP-8" value="" style="group" vertex="1" connectable="0" parent="1">
          <mxGeometry x="372.12800000000004" y="242.5531914893617" width="111.06400000000002" height="138.82978723404253" as="geometry" />
        </mxCell>
        <mxCell id="JM-H49FMi5Isf11ecGoP-9" value="Дмитрий" style="shape=umlActor;verticalLabelPosition=bottom;verticalAlign=top;html=1;outlineConnect=0;container=0;" vertex="1" parent="JM-H49FMi5Isf11ecGoP-8">
          <mxGeometry x="23.13833333333332" y="9.255319148936167" width="64.78733333333334" height="129.5744680851064" as="geometry" />
        </mxCell>
        <mxCell id="JM-H49FMi5Isf11ecGoP-10" value="3" style="text;html=1;align=center;verticalAlign=middle;whiteSpace=wrap;rounded=0;container=0;" vertex="1" parent="JM-H49FMi5Isf11ecGoP-8">
          <mxGeometry width="111.06400000000001" height="55.53191489361703" as="geometry" />
        </mxCell>
        <mxCell id="JM-H49FMi5Isf11ecGoP-11" value="" style="group" vertex="1" connectable="0" parent="1">
          <mxGeometry x="483.192" y="242.5531914893617" width="111.06399999999996" height="138.82978723404253" as="geometry" />
        </mxCell>
        <mxCell id="JM-H49FMi5Isf11ecGoP-12" value="Екатерина" style="shape=umlActor;verticalLabelPosition=bottom;verticalAlign=top;html=1;outlineConnect=0;container=0;" vertex="1" parent="JM-H49FMi5Isf11ecGoP-11">
          <mxGeometry x="23.13833333333332" y="9.255319148936167" width="64.78733333333334" height="129.5744680851064" as="geometry" />
        </mxCell>
        <mxCell id="JM-H49FMi5Isf11ecGoP-13" value="4" style="text;html=1;align=center;verticalAlign=middle;whiteSpace=wrap;rounded=0;container=0;" vertex="1" parent="JM-H49FMi5Isf11ecGoP-11">
          <mxGeometry width="111.06400000000001" height="55.53191489361703" as="geometry" />
        </mxCell>
        <mxCell id="JM-H49FMi5Isf11ecGoP-14" value="" style="group" vertex="1" connectable="0" parent="1">
          <mxGeometry x="594.2560000000001" y="242.5531914893617" width="111.06399999999996" height="138.82978723404253" as="geometry" />
        </mxCell>
        <mxCell id="JM-H49FMi5Isf11ecGoP-15" value="Сергей" style="shape=umlActor;verticalLabelPosition=bottom;verticalAlign=top;html=1;outlineConnect=0;container=0;" vertex="1" parent="JM-H49FMi5Isf11ecGoP-14">
          <mxGeometry x="23.13833333333332" y="9.255319148936167" width="64.78733333333334" height="129.5744680851064" as="geometry" />
        </mxCell>
        <mxCell id="JM-H49FMi5Isf11ecGoP-16" value="5" style="text;html=1;align=center;verticalAlign=middle;whiteSpace=wrap;rounded=0;container=0;" vertex="1" parent="JM-H49FMi5Isf11ecGoP-14">
          <mxGeometry width="111.06400000000001" height="55.53191489361703" as="geometry" />
        </mxCell>
        <mxCell id="JM-H49FMi5Isf11ecGoP-17" value="" style="group" vertex="1" connectable="0" parent="1">
          <mxGeometry x="150" y="446.17021276595744" width="111.06400000000002" height="138.82978723404256" as="geometry" />
        </mxCell>
        <mxCell id="JM-H49FMi5Isf11ecGoP-18" value="Иван" style="shape=umlActor;verticalLabelPosition=bottom;verticalAlign=top;html=1;outlineConnect=0;container=0;" vertex="1" parent="JM-H49FMi5Isf11ecGoP-17">
          <mxGeometry x="23.13833333333332" y="9.255319148936167" width="64.78733333333334" height="129.5744680851064" as="geometry" />
        </mxCell>
        <mxCell id="JM-H49FMi5Isf11ecGoP-19" value="6" style="text;html=1;align=center;verticalAlign=middle;whiteSpace=wrap;rounded=0;container=0;" vertex="1" parent="JM-H49FMi5Isf11ecGoP-17">
          <mxGeometry width="111.06400000000001" height="55.53191489361703" as="geometry" />
        </mxCell>
        <mxCell id="JM-H49FMi5Isf11ecGoP-20" value="" style="group" vertex="1" connectable="0" parent="1">
          <mxGeometry x="261.064" y="446.17021276595744" width="111.06400000000002" height="138.82978723404256" as="geometry" />
        </mxCell>
        <mxCell id="JM-H49FMi5Isf11ecGoP-21" value="Ольга" style="shape=umlActor;verticalLabelPosition=bottom;verticalAlign=top;html=1;outlineConnect=0;container=0;" vertex="1" parent="JM-H49FMi5Isf11ecGoP-20">
          <mxGeometry x="23.13833333333332" y="9.255319148936167" width="64.78733333333334" height="129.5744680851064" as="geometry" />
        </mxCell>
        <mxCell id="JM-H49FMi5Isf11ecGoP-22" value="7" style="text;html=1;align=center;verticalAlign=middle;whiteSpace=wrap;rounded=0;container=0;" vertex="1" parent="JM-H49FMi5Isf11ecGoP-20">
          <mxGeometry width="111.06400000000001" height="55.53191489361703" as="geometry" />
        </mxCell>
        <mxCell id="JM-H49FMi5Isf11ecGoP-23" value="" style="group" vertex="1" connectable="0" parent="1">
          <mxGeometry x="372.12800000000004" y="446.17021276595744" width="111.06400000000002" height="138.82978723404256" as="geometry" />
        </mxCell>
        <mxCell id="JM-H49FMi5Isf11ecGoP-24" value="Константин" style="shape=umlActor;verticalLabelPosition=bottom;verticalAlign=top;html=1;outlineConnect=0;container=0;" vertex="1" parent="JM-H49FMi5Isf11ecGoP-23">
          <mxGeometry x="23.13833333333332" y="9.255319148936167" width="64.78733333333334" height="129.5744680851064" as="geometry" />
        </mxCell>
        <mxCell id="JM-H49FMi5Isf11ecGoP-25" value="8" style="text;html=1;align=center;verticalAlign=middle;whiteSpace=wrap;rounded=0;container=0;" vertex="1" parent="JM-H49FMi5Isf11ecGoP-23">
          <mxGeometry width="111.06400000000001" height="55.53191489361703" as="geometry" />
        </mxCell>
        <mxCell id="JM-H49FMi5Isf11ecGoP-26" value="" style="group" vertex="1" connectable="0" parent="1">
          <mxGeometry x="483.192" y="446.17021276595744" width="111.06399999999996" height="138.82978723404256" as="geometry" />
        </mxCell>
        <mxCell id="JM-H49FMi5Isf11ecGoP-27" value="Юлия" style="shape=umlActor;verticalLabelPosition=bottom;verticalAlign=top;html=1;outlineConnect=0;container=0;" vertex="1" parent="JM-H49FMi5Isf11ecGoP-26">
          <mxGeometry x="23.13833333333332" y="9.255319148936167" width="64.78733333333334" height="129.5744680851064" as="geometry" />
        </mxCell>
        <mxCell id="JM-H49FMi5Isf11ecGoP-28" value="9" style="text;html=1;align=center;verticalAlign=middle;whiteSpace=wrap;rounded=0;container=0;" vertex="1" parent="JM-H49FMi5Isf11ecGoP-26">
          <mxGeometry width="111.06400000000001" height="55.53191489361703" as="geometry" />
        </mxCell>
        <mxCell id="JM-H49FMi5Isf11ecGoP-29" value="" style="group" vertex="1" connectable="0" parent="1">
          <mxGeometry x="594.2560000000001" y="446.17021276595744" width="111.06399999999996" height="138.82978723404256" as="geometry" />
        </mxCell>
        <mxCell id="JM-H49FMi5Isf11ecGoP-30" value="Максим" style="shape=umlActor;verticalLabelPosition=bottom;verticalAlign=top;html=1;outlineConnect=0;container=0;" vertex="1" parent="JM-H49FMi5Isf11ecGoP-29">
          <mxGeometry x="23.13833333333332" y="9.255319148936167" width="64.78733333333334" height="129.5744680851064" as="geometry" />
        </mxCell>
        <mxCell id="JM-H49FMi5Isf11ecGoP-31" value="10" style="text;html=1;align=center;verticalAlign=middle;whiteSpace=wrap;rounded=0;container=0;" vertex="1" parent="JM-H49FMi5Isf11ecGoP-29">
          <mxGeometry width="111.06400000000001" height="55.53191489361703" as="geometry" />
        </mxCell>
      </root>
    </mxGraphModel>
  </diagram>
  <diagram name="Country" id="N8zo-ecqZxB7jm_UfxJE">
    <mxGraphModel dx="1176" dy="850" grid="1" gridSize="10" guides="1" tooltips="1" connect="1" arrows="1" fold="1" page="1" pageScale="1" pageWidth="827" pageHeight="1169" math="0" shadow="0">
      <root>
        <mxCell id="0" />
        <mxCell id="1" parent="0" />
        <mxCell id="gbmu8a2-WY4lUa7iHHF9-3" value="" style="group" vertex="1" connectable="0" parent="1">
          <mxGeometry x="30" y="120" width="80" height="80" as="geometry" />
        </mxCell>
        <mxCell id="gbmu8a2-WY4lUa7iHHF9-1" value="" style="ellipse;whiteSpace=wrap;html=1;aspect=fixed;" vertex="1" parent="gbmu8a2-WY4lUa7iHHF9-3">
          <mxGeometry width="80" height="80" as="geometry" />
        </mxCell>
        <mxCell id="gbmu8a2-WY4lUa7iHHF9-2" value="Европа" style="ellipse;whiteSpace=wrap;html=1;aspect=fixed;" vertex="1" parent="gbmu8a2-WY4lUa7iHHF9-3">
          <mxGeometry x="15" y="30" width="50" height="50" as="geometry" />
        </mxCell>
        <mxCell id="gbmu8a2-WY4lUa7iHHF9-4" value="&lt;font style=&quot;font-size: 10px;&quot;&gt;Германия&lt;/font&gt;" style="text;html=1;align=center;verticalAlign=middle;whiteSpace=wrap;rounded=0;" vertex="1" parent="gbmu8a2-WY4lUa7iHHF9-3">
          <mxGeometry x="10" y="10" width="60" height="30" as="geometry" />
        </mxCell>
        <mxCell id="gbmu8a2-WY4lUa7iHHF9-5" value="1" style="ellipse;whiteSpace=wrap;html=1;aspect=fixed;" vertex="1" parent="gbmu8a2-WY4lUa7iHHF9-3">
          <mxGeometry x="30" width="20" height="20" as="geometry" />
        </mxCell>
        <mxCell id="gbmu8a2-WY4lUa7iHHF9-11" value="" style="group" vertex="1" connectable="0" parent="1">
          <mxGeometry x="120" y="120" width="80" height="80" as="geometry" />
        </mxCell>
        <mxCell id="gbmu8a2-WY4lUa7iHHF9-12" value="" style="ellipse;whiteSpace=wrap;html=1;aspect=fixed;" vertex="1" parent="gbmu8a2-WY4lUa7iHHF9-11">
          <mxGeometry width="80" height="80" as="geometry" />
        </mxCell>
        <mxCell id="gbmu8a2-WY4lUa7iHHF9-13" value="Европа" style="ellipse;whiteSpace=wrap;html=1;aspect=fixed;" vertex="1" parent="gbmu8a2-WY4lUa7iHHF9-11">
          <mxGeometry x="15" y="30" width="50" height="50" as="geometry" />
        </mxCell>
        <mxCell id="gbmu8a2-WY4lUa7iHHF9-14" value="&lt;font data-cur=&quot;cursor&quot; style=&quot;font-size: 10px;&quot;&gt;Испания&lt;/font&gt;" style="text;html=1;align=center;verticalAlign=middle;whiteSpace=wrap;rounded=0;" vertex="1" parent="gbmu8a2-WY4lUa7iHHF9-11">
          <mxGeometry x="10" y="10" width="60" height="30" as="geometry" />
        </mxCell>
        <mxCell id="gbmu8a2-WY4lUa7iHHF9-15" value="2" style="ellipse;whiteSpace=wrap;html=1;aspect=fixed;" vertex="1" parent="gbmu8a2-WY4lUa7iHHF9-11">
          <mxGeometry x="30" width="20" height="20" as="geometry" />
        </mxCell>
        <mxCell id="gbmu8a2-WY4lUa7iHHF9-16" value="" style="group" vertex="1" connectable="0" parent="1">
          <mxGeometry x="210" y="120" width="80" height="80" as="geometry" />
        </mxCell>
        <mxCell id="gbmu8a2-WY4lUa7iHHF9-17" value="" style="ellipse;whiteSpace=wrap;html=1;aspect=fixed;" vertex="1" parent="gbmu8a2-WY4lUa7iHHF9-16">
          <mxGeometry width="80" height="80" as="geometry" />
        </mxCell>
        <mxCell id="gbmu8a2-WY4lUa7iHHF9-18" value="Европа" style="ellipse;whiteSpace=wrap;html=1;aspect=fixed;" vertex="1" parent="gbmu8a2-WY4lUa7iHHF9-16">
          <mxGeometry x="15" y="30" width="50" height="50" as="geometry" />
        </mxCell>
        <mxCell id="gbmu8a2-WY4lUa7iHHF9-19" value="&lt;font data-cur=&quot;cursor&quot; style=&quot;font-size: 10px;&quot;&gt;Италия&lt;/font&gt;" style="text;html=1;align=center;verticalAlign=middle;whiteSpace=wrap;rounded=0;" vertex="1" parent="gbmu8a2-WY4lUa7iHHF9-16">
          <mxGeometry x="10" y="10" width="60" height="30" as="geometry" />
        </mxCell>
        <mxCell id="gbmu8a2-WY4lUa7iHHF9-20" value="3" style="ellipse;whiteSpace=wrap;html=1;aspect=fixed;" vertex="1" parent="gbmu8a2-WY4lUa7iHHF9-16">
          <mxGeometry x="30" width="20" height="20" as="geometry" />
        </mxCell>
        <mxCell id="gbmu8a2-WY4lUa7iHHF9-26" value="" style="group" vertex="1" connectable="0" parent="1">
          <mxGeometry x="300" y="120" width="80" height="80" as="geometry" />
        </mxCell>
        <mxCell id="gbmu8a2-WY4lUa7iHHF9-27" value="" style="ellipse;whiteSpace=wrap;html=1;aspect=fixed;" vertex="1" parent="gbmu8a2-WY4lUa7iHHF9-26">
          <mxGeometry width="80" height="80" as="geometry" />
        </mxCell>
        <mxCell id="gbmu8a2-WY4lUa7iHHF9-28" value="Европа" style="ellipse;whiteSpace=wrap;html=1;aspect=fixed;" vertex="1" parent="gbmu8a2-WY4lUa7iHHF9-26">
          <mxGeometry x="15" y="30" width="50" height="50" as="geometry" />
        </mxCell>
        <mxCell id="gbmu8a2-WY4lUa7iHHF9-29" value="&lt;font data-cur=&quot;cursor&quot; style=&quot;font-size: 10px;&quot;&gt;Англия&lt;/font&gt;" style="text;html=1;align=center;verticalAlign=middle;whiteSpace=wrap;rounded=0;" vertex="1" parent="gbmu8a2-WY4lUa7iHHF9-26">
          <mxGeometry x="10" y="10" width="60" height="30" as="geometry" />
        </mxCell>
        <mxCell id="gbmu8a2-WY4lUa7iHHF9-30" value="4" style="ellipse;whiteSpace=wrap;html=1;aspect=fixed;" vertex="1" parent="gbmu8a2-WY4lUa7iHHF9-26">
          <mxGeometry x="30" width="20" height="20" as="geometry" />
        </mxCell>
        <mxCell id="gbmu8a2-WY4lUa7iHHF9-32" value="" style="group" vertex="1" connectable="0" parent="1">
          <mxGeometry x="390" y="120" width="80" height="80" as="geometry" />
        </mxCell>
        <mxCell id="gbmu8a2-WY4lUa7iHHF9-33" value="" style="ellipse;whiteSpace=wrap;html=1;aspect=fixed;" vertex="1" parent="gbmu8a2-WY4lUa7iHHF9-32">
          <mxGeometry width="80" height="80" as="geometry" />
        </mxCell>
        <mxCell id="gbmu8a2-WY4lUa7iHHF9-34" value="Европа" style="ellipse;whiteSpace=wrap;html=1;aspect=fixed;" vertex="1" parent="gbmu8a2-WY4lUa7iHHF9-32">
          <mxGeometry x="15" y="30" width="50" height="50" as="geometry" />
        </mxCell>
        <mxCell id="gbmu8a2-WY4lUa7iHHF9-35" value="&lt;font data-cur=&quot;cursor&quot; style=&quot;font-size: 10px;&quot;&gt;Франция&lt;/font&gt;" style="text;html=1;align=center;verticalAlign=middle;whiteSpace=wrap;rounded=0;" vertex="1" parent="gbmu8a2-WY4lUa7iHHF9-32">
          <mxGeometry x="10" y="10" width="60" height="30" as="geometry" />
        </mxCell>
        <mxCell id="gbmu8a2-WY4lUa7iHHF9-36" value="5" style="ellipse;whiteSpace=wrap;html=1;aspect=fixed;" vertex="1" parent="gbmu8a2-WY4lUa7iHHF9-32">
          <mxGeometry x="30" width="20" height="20" as="geometry" />
        </mxCell>
        <mxCell id="gbmu8a2-WY4lUa7iHHF9-37" value="" style="group" vertex="1" connectable="0" parent="1">
          <mxGeometry x="30" y="210" width="80" height="80" as="geometry" />
        </mxCell>
        <mxCell id="gbmu8a2-WY4lUa7iHHF9-38" value="" style="ellipse;whiteSpace=wrap;html=1;aspect=fixed;" vertex="1" parent="gbmu8a2-WY4lUa7iHHF9-37">
          <mxGeometry width="80" height="80" as="geometry" />
        </mxCell>
        <mxCell id="gbmu8a2-WY4lUa7iHHF9-39" value="Европа" style="ellipse;whiteSpace=wrap;html=1;aspect=fixed;" vertex="1" parent="gbmu8a2-WY4lUa7iHHF9-37">
          <mxGeometry x="15" y="30" width="50" height="50" as="geometry" />
        </mxCell>
        <mxCell id="gbmu8a2-WY4lUa7iHHF9-40" value="&lt;font data-cur=&quot;cursor&quot; style=&quot;font-size: 10px;&quot;&gt;Португалия&lt;/font&gt;" style="text;html=1;align=center;verticalAlign=middle;whiteSpace=wrap;rounded=0;" vertex="1" parent="gbmu8a2-WY4lUa7iHHF9-37">
          <mxGeometry x="10" y="10" width="60" height="30" as="geometry" />
        </mxCell>
        <mxCell id="gbmu8a2-WY4lUa7iHHF9-41" value="6" style="ellipse;whiteSpace=wrap;html=1;aspect=fixed;" vertex="1" parent="gbmu8a2-WY4lUa7iHHF9-37">
          <mxGeometry x="30" width="20" height="20" as="geometry" />
        </mxCell>
        <mxCell id="gbmu8a2-WY4lUa7iHHF9-42" value="" style="group" vertex="1" connectable="0" parent="1">
          <mxGeometry x="120" y="210" width="80" height="80" as="geometry" />
        </mxCell>
        <mxCell id="gbmu8a2-WY4lUa7iHHF9-43" value="" style="ellipse;whiteSpace=wrap;html=1;aspect=fixed;" vertex="1" parent="gbmu8a2-WY4lUa7iHHF9-42">
          <mxGeometry width="80" height="80" as="geometry" />
        </mxCell>
        <mxCell id="gbmu8a2-WY4lUa7iHHF9-44" value="Европа" style="ellipse;whiteSpace=wrap;html=1;aspect=fixed;" vertex="1" parent="gbmu8a2-WY4lUa7iHHF9-42">
          <mxGeometry x="15" y="30" width="50" height="50" as="geometry" />
        </mxCell>
        <mxCell id="gbmu8a2-WY4lUa7iHHF9-45" value="&lt;font data-cur=&quot;cursor&quot; style=&quot;font-size: 10px;&quot;&gt;Нидерланды&lt;/font&gt;" style="text;html=1;align=center;verticalAlign=middle;whiteSpace=wrap;rounded=0;" vertex="1" parent="gbmu8a2-WY4lUa7iHHF9-42">
          <mxGeometry x="10" y="10" width="60" height="30" as="geometry" />
        </mxCell>
        <mxCell id="gbmu8a2-WY4lUa7iHHF9-46" value="7" style="ellipse;whiteSpace=wrap;html=1;aspect=fixed;" vertex="1" parent="gbmu8a2-WY4lUa7iHHF9-42">
          <mxGeometry x="30" width="20" height="20" as="geometry" />
        </mxCell>
        <mxCell id="gbmu8a2-WY4lUa7iHHF9-47" value="" style="group" vertex="1" connectable="0" parent="1">
          <mxGeometry x="210" y="210" width="80" height="80" as="geometry" />
        </mxCell>
        <mxCell id="gbmu8a2-WY4lUa7iHHF9-48" value="" style="ellipse;whiteSpace=wrap;html=1;aspect=fixed;" vertex="1" parent="gbmu8a2-WY4lUa7iHHF9-47">
          <mxGeometry width="80" height="80" as="geometry" />
        </mxCell>
        <mxCell id="gbmu8a2-WY4lUa7iHHF9-49" value="Европа" style="ellipse;whiteSpace=wrap;html=1;aspect=fixed;" vertex="1" parent="gbmu8a2-WY4lUa7iHHF9-47">
          <mxGeometry x="15" y="30" width="50" height="50" as="geometry" />
        </mxCell>
        <mxCell id="gbmu8a2-WY4lUa7iHHF9-50" value="&lt;font data-cur=&quot;cursor&quot; style=&quot;font-size: 10px;&quot;&gt;Бельгия&lt;/font&gt;" style="text;html=1;align=center;verticalAlign=middle;whiteSpace=wrap;rounded=0;" vertex="1" parent="gbmu8a2-WY4lUa7iHHF9-47">
          <mxGeometry x="10" y="10" width="60" height="30" as="geometry" />
        </mxCell>
        <mxCell id="gbmu8a2-WY4lUa7iHHF9-51" value="8" style="ellipse;whiteSpace=wrap;html=1;aspect=fixed;" vertex="1" parent="gbmu8a2-WY4lUa7iHHF9-47">
          <mxGeometry x="30" width="20" height="20" as="geometry" />
        </mxCell>
        <mxCell id="gbmu8a2-WY4lUa7iHHF9-52" value="" style="group" vertex="1" connectable="0" parent="1">
          <mxGeometry x="300" y="210" width="80" height="80" as="geometry" />
        </mxCell>
        <mxCell id="gbmu8a2-WY4lUa7iHHF9-53" value="" style="ellipse;whiteSpace=wrap;html=1;aspect=fixed;" vertex="1" parent="gbmu8a2-WY4lUa7iHHF9-52">
          <mxGeometry width="80" height="80" as="geometry" />
        </mxCell>
        <mxCell id="gbmu8a2-WY4lUa7iHHF9-54" value="Европа" style="ellipse;whiteSpace=wrap;html=1;aspect=fixed;" vertex="1" parent="gbmu8a2-WY4lUa7iHHF9-52">
          <mxGeometry x="15" y="30" width="50" height="50" as="geometry" />
        </mxCell>
        <mxCell id="gbmu8a2-WY4lUa7iHHF9-55" value="&lt;font data-cur=&quot;cursor&quot; style=&quot;font-size: 10px;&quot;&gt;Австрия&lt;/font&gt;" style="text;html=1;align=center;verticalAlign=middle;whiteSpace=wrap;rounded=0;" vertex="1" parent="gbmu8a2-WY4lUa7iHHF9-52">
          <mxGeometry x="10" y="10" width="60" height="30" as="geometry" />
        </mxCell>
        <mxCell id="gbmu8a2-WY4lUa7iHHF9-56" value="9" style="ellipse;whiteSpace=wrap;html=1;aspect=fixed;" vertex="1" parent="gbmu8a2-WY4lUa7iHHF9-52">
          <mxGeometry x="30" width="20" height="20" as="geometry" />
        </mxCell>
        <mxCell id="gbmu8a2-WY4lUa7iHHF9-57" value="" style="group" vertex="1" connectable="0" parent="1">
          <mxGeometry x="390" y="210" width="80" height="80" as="geometry" />
        </mxCell>
        <mxCell id="gbmu8a2-WY4lUa7iHHF9-58" value="" style="ellipse;whiteSpace=wrap;html=1;aspect=fixed;" vertex="1" parent="gbmu8a2-WY4lUa7iHHF9-57">
          <mxGeometry width="80" height="80" as="geometry" />
        </mxCell>
        <mxCell id="gbmu8a2-WY4lUa7iHHF9-59" value="Европа" style="ellipse;whiteSpace=wrap;html=1;aspect=fixed;" vertex="1" parent="gbmu8a2-WY4lUa7iHHF9-57">
          <mxGeometry x="15" y="30" width="50" height="50" as="geometry" />
        </mxCell>
        <mxCell id="gbmu8a2-WY4lUa7iHHF9-60" value="&lt;span data-cur=&quot;cursor&quot; style=&quot;font-size: 10px;&quot;&gt;Швейцария&lt;/span&gt;" style="text;html=1;align=center;verticalAlign=middle;whiteSpace=wrap;rounded=0;" vertex="1" parent="gbmu8a2-WY4lUa7iHHF9-57">
          <mxGeometry x="10" y="10" width="60" height="30" as="geometry" />
        </mxCell>
        <mxCell id="gbmu8a2-WY4lUa7iHHF9-61" value="10" style="ellipse;whiteSpace=wrap;html=1;aspect=fixed;" vertex="1" parent="gbmu8a2-WY4lUa7iHHF9-57">
          <mxGeometry x="30" width="20" height="20" as="geometry" />
        </mxCell>
        <mxCell id="r-B-myOZJEBxwlZYvZUr-1" value="&lt;font style=&quot;font-size: 72px;&quot;&gt;COUNTRY&lt;/font&gt;" style="text;html=1;align=center;verticalAlign=middle;whiteSpace=wrap;rounded=0;" vertex="1" parent="1">
          <mxGeometry x="220" y="410" width="60" height="30" as="geometry" />
        </mxCell>
      </root>
    </mxGraphModel>
  </diagram>
  <diagram name="Club" id="5CzifFqDNjKIQiIrzRCf">
    <mxGraphModel dx="681" dy="802" grid="1" gridSize="10" guides="1" tooltips="1" connect="1" arrows="1" fold="1" page="1" pageScale="1" pageWidth="827" pageHeight="1169" math="0" shadow="0">
      <root>
        <mxCell id="0" />
        <mxCell id="1" parent="0" />
        <mxCell id="u9aY8ozltJ8EBuPFfm2K-23" value="" style="group" parent="1" vertex="1" connectable="0">
          <mxGeometry x="150" y="230" width="100" height="100" as="geometry" />
        </mxCell>
        <mxCell id="u9aY8ozltJ8EBuPFfm2K-15" value="" style="rounded=0;whiteSpace=wrap;html=1;" parent="u9aY8ozltJ8EBuPFfm2K-23" vertex="1">
          <mxGeometry width="100" height="100" as="geometry" />
        </mxCell>
        <mxCell id="u9aY8ozltJ8EBuPFfm2K-16" value="2" style="rounded=0;whiteSpace=wrap;html=1;" parent="u9aY8ozltJ8EBuPFfm2K-23" vertex="1">
          <mxGeometry x="40" y="80" width="20" height="20" as="geometry" />
        </mxCell>
        <mxCell id="u9aY8ozltJ8EBuPFfm2K-17" value="2" style="rounded=0;whiteSpace=wrap;html=1;" parent="u9aY8ozltJ8EBuPFfm2K-23" vertex="1">
          <mxGeometry x="40" width="20" height="20" as="geometry" />
        </mxCell>
        <mxCell id="u9aY8ozltJ8EBuPFfm2K-18" value="Барселона" style="text;html=1;align=center;verticalAlign=middle;whiteSpace=wrap;rounded=0;" parent="u9aY8ozltJ8EBuPFfm2K-23" vertex="1">
          <mxGeometry x="20" y="35" width="60" height="30" as="geometry" />
        </mxCell>
        <mxCell id="u9aY8ozltJ8EBuPFfm2K-24" value="" style="group" parent="1" vertex="1" connectable="0">
          <mxGeometry x="40" y="230" width="100" height="100" as="geometry" />
        </mxCell>
        <mxCell id="u9aY8ozltJ8EBuPFfm2K-8" value="" style="rounded=0;whiteSpace=wrap;html=1;" parent="u9aY8ozltJ8EBuPFfm2K-24" vertex="1">
          <mxGeometry width="100" height="100" as="geometry" />
        </mxCell>
        <mxCell id="u9aY8ozltJ8EBuPFfm2K-11" value="1" style="rounded=0;whiteSpace=wrap;html=1;" parent="u9aY8ozltJ8EBuPFfm2K-24" vertex="1">
          <mxGeometry x="40" y="80" width="20" height="20" as="geometry" />
        </mxCell>
        <mxCell id="u9aY8ozltJ8EBuPFfm2K-12" value="1" style="rounded=0;whiteSpace=wrap;html=1;" parent="u9aY8ozltJ8EBuPFfm2K-24" vertex="1">
          <mxGeometry x="40" width="20" height="20" as="geometry" />
        </mxCell>
        <mxCell id="u9aY8ozltJ8EBuPFfm2K-14" value="Бавария" style="text;html=1;align=center;verticalAlign=middle;whiteSpace=wrap;rounded=0;" parent="u9aY8ozltJ8EBuPFfm2K-24" vertex="1">
          <mxGeometry x="20" y="35" width="60" height="30" as="geometry" />
        </mxCell>
        <mxCell id="u9aY8ozltJ8EBuPFfm2K-25" value="" style="group" parent="1" vertex="1" connectable="0">
          <mxGeometry x="260" y="230" width="100" height="100" as="geometry" />
        </mxCell>
        <mxCell id="u9aY8ozltJ8EBuPFfm2K-26" value="" style="rounded=0;whiteSpace=wrap;html=1;" parent="u9aY8ozltJ8EBuPFfm2K-25" vertex="1">
          <mxGeometry width="100" height="100" as="geometry" />
        </mxCell>
        <mxCell id="u9aY8ozltJ8EBuPFfm2K-27" value="3" style="rounded=0;whiteSpace=wrap;html=1;" parent="u9aY8ozltJ8EBuPFfm2K-25" vertex="1">
          <mxGeometry x="40" y="80" width="20" height="20" as="geometry" />
        </mxCell>
        <mxCell id="u9aY8ozltJ8EBuPFfm2K-28" value="3" style="rounded=0;whiteSpace=wrap;html=1;" parent="u9aY8ozltJ8EBuPFfm2K-25" vertex="1">
          <mxGeometry x="40" width="20" height="20" as="geometry" />
        </mxCell>
        <mxCell id="u9aY8ozltJ8EBuPFfm2K-29" value="Ювентус" style="text;html=1;align=center;verticalAlign=middle;whiteSpace=wrap;rounded=0;" parent="u9aY8ozltJ8EBuPFfm2K-25" vertex="1">
          <mxGeometry x="20" y="35" width="60" height="30" as="geometry" />
        </mxCell>
        <mxCell id="u9aY8ozltJ8EBuPFfm2K-30" value="" style="group" parent="1" vertex="1" connectable="0">
          <mxGeometry x="370" y="230" width="100" height="100" as="geometry" />
        </mxCell>
        <mxCell id="u9aY8ozltJ8EBuPFfm2K-31" value="" style="rounded=0;whiteSpace=wrap;html=1;" parent="u9aY8ozltJ8EBuPFfm2K-30" vertex="1">
          <mxGeometry width="100" height="100" as="geometry" />
        </mxCell>
        <mxCell id="u9aY8ozltJ8EBuPFfm2K-32" value="4" style="rounded=0;whiteSpace=wrap;html=1;" parent="u9aY8ozltJ8EBuPFfm2K-30" vertex="1">
          <mxGeometry x="40" y="80" width="20" height="20" as="geometry" />
        </mxCell>
        <mxCell id="u9aY8ozltJ8EBuPFfm2K-33" value="4" style="rounded=0;whiteSpace=wrap;html=1;" parent="u9aY8ozltJ8EBuPFfm2K-30" vertex="1">
          <mxGeometry x="40" width="20" height="20" as="geometry" />
        </mxCell>
        <mxCell id="u9aY8ozltJ8EBuPFfm2K-34" value="Манчестер&lt;div data-cur=&quot;cursor&quot;&gt;Юнайтед&lt;/div&gt;" style="text;html=1;align=center;verticalAlign=middle;whiteSpace=wrap;rounded=0;" parent="u9aY8ozltJ8EBuPFfm2K-30" vertex="1">
          <mxGeometry x="20" y="35" width="60" height="30" as="geometry" />
        </mxCell>
        <mxCell id="u9aY8ozltJ8EBuPFfm2K-35" value="" style="group" parent="1" vertex="1" connectable="0">
          <mxGeometry x="480" y="230" width="100" height="100" as="geometry" />
        </mxCell>
        <mxCell id="u9aY8ozltJ8EBuPFfm2K-36" value="" style="rounded=0;whiteSpace=wrap;html=1;" parent="u9aY8ozltJ8EBuPFfm2K-35" vertex="1">
          <mxGeometry width="100" height="100" as="geometry" />
        </mxCell>
        <mxCell id="u9aY8ozltJ8EBuPFfm2K-37" value="5" style="rounded=0;whiteSpace=wrap;html=1;" parent="u9aY8ozltJ8EBuPFfm2K-35" vertex="1">
          <mxGeometry x="40" y="80" width="20" height="20" as="geometry" />
        </mxCell>
        <mxCell id="u9aY8ozltJ8EBuPFfm2K-38" value="5" style="rounded=0;whiteSpace=wrap;html=1;" parent="u9aY8ozltJ8EBuPFfm2K-35" vertex="1">
          <mxGeometry x="40" width="20" height="20" as="geometry" />
        </mxCell>
        <mxCell id="u9aY8ozltJ8EBuPFfm2K-39" value="Пари&lt;div data-cur=&quot;cursor&quot;&gt;Сен-Жермен&lt;/div&gt;" style="text;html=1;align=center;verticalAlign=middle;whiteSpace=wrap;rounded=0;" parent="u9aY8ozltJ8EBuPFfm2K-35" vertex="1">
          <mxGeometry x="10" y="35" width="80" height="30" as="geometry" />
        </mxCell>
        <mxCell id="u9aY8ozltJ8EBuPFfm2K-93" value="&lt;font style=&quot;font-size: 72px;&quot;&gt;CLUB&lt;/font&gt;" style="text;html=1;align=center;verticalAlign=middle;whiteSpace=wrap;rounded=0;" parent="1" vertex="1">
          <mxGeometry x="220" y="100" width="60" height="30" as="geometry" />
        </mxCell>
        <mxCell id="VHwV5VS11oKMJuKwkRVE-1" value="" style="group" parent="1" vertex="1" connectable="0">
          <mxGeometry x="150" y="350" width="100" height="100" as="geometry" />
        </mxCell>
        <mxCell id="VHwV5VS11oKMJuKwkRVE-2" value="" style="rounded=0;whiteSpace=wrap;html=1;" parent="VHwV5VS11oKMJuKwkRVE-1" vertex="1">
          <mxGeometry width="100" height="100" as="geometry" />
        </mxCell>
        <mxCell id="VHwV5VS11oKMJuKwkRVE-3" value="7" style="rounded=0;whiteSpace=wrap;html=1;" parent="VHwV5VS11oKMJuKwkRVE-1" vertex="1">
          <mxGeometry x="40" y="80" width="20" height="20" as="geometry" />
        </mxCell>
        <mxCell id="VHwV5VS11oKMJuKwkRVE-4" value="7" style="rounded=0;whiteSpace=wrap;html=1;" parent="VHwV5VS11oKMJuKwkRVE-1" vertex="1">
          <mxGeometry x="40" width="20" height="20" as="geometry" />
        </mxCell>
        <mxCell id="VHwV5VS11oKMJuKwkRVE-5" value="Аякс" style="text;html=1;align=center;verticalAlign=middle;whiteSpace=wrap;rounded=0;" parent="VHwV5VS11oKMJuKwkRVE-1" vertex="1">
          <mxGeometry x="20" y="35" width="60" height="30" as="geometry" />
        </mxCell>
        <mxCell id="VHwV5VS11oKMJuKwkRVE-6" value="" style="group" parent="1" vertex="1" connectable="0">
          <mxGeometry x="40" y="350" width="100" height="100" as="geometry" />
        </mxCell>
        <mxCell id="VHwV5VS11oKMJuKwkRVE-7" value="" style="rounded=0;whiteSpace=wrap;html=1;" parent="VHwV5VS11oKMJuKwkRVE-6" vertex="1">
          <mxGeometry width="100" height="100" as="geometry" />
        </mxCell>
        <mxCell id="VHwV5VS11oKMJuKwkRVE-8" value="6" style="rounded=0;whiteSpace=wrap;html=1;" parent="VHwV5VS11oKMJuKwkRVE-6" vertex="1">
          <mxGeometry x="40" y="80" width="20" height="20" as="geometry" />
        </mxCell>
        <mxCell id="VHwV5VS11oKMJuKwkRVE-9" value="6" style="rounded=0;whiteSpace=wrap;html=1;" parent="VHwV5VS11oKMJuKwkRVE-6" vertex="1">
          <mxGeometry x="40" width="20" height="20" as="geometry" />
        </mxCell>
        <mxCell id="VHwV5VS11oKMJuKwkRVE-10" value="Порту" style="text;html=1;align=center;verticalAlign=middle;whiteSpace=wrap;rounded=0;" parent="VHwV5VS11oKMJuKwkRVE-6" vertex="1">
          <mxGeometry x="20" y="35" width="60" height="30" as="geometry" />
        </mxCell>
        <mxCell id="VHwV5VS11oKMJuKwkRVE-11" value="" style="group" parent="1" vertex="1" connectable="0">
          <mxGeometry x="260" y="350" width="100" height="100" as="geometry" />
        </mxCell>
        <mxCell id="VHwV5VS11oKMJuKwkRVE-12" value="" style="rounded=0;whiteSpace=wrap;html=1;" parent="VHwV5VS11oKMJuKwkRVE-11" vertex="1">
          <mxGeometry width="100" height="100" as="geometry" />
        </mxCell>
        <mxCell id="VHwV5VS11oKMJuKwkRVE-13" value="8" style="rounded=0;whiteSpace=wrap;html=1;" parent="VHwV5VS11oKMJuKwkRVE-11" vertex="1">
          <mxGeometry x="40" y="80" width="20" height="20" as="geometry" />
        </mxCell>
        <mxCell id="VHwV5VS11oKMJuKwkRVE-14" value="8" style="rounded=0;whiteSpace=wrap;html=1;" parent="VHwV5VS11oKMJuKwkRVE-11" vertex="1">
          <mxGeometry x="40" width="20" height="20" as="geometry" />
        </mxCell>
        <mxCell id="VHwV5VS11oKMJuKwkRVE-15" value="Андерлехт" style="text;html=1;align=center;verticalAlign=middle;whiteSpace=wrap;rounded=0;" parent="VHwV5VS11oKMJuKwkRVE-11" vertex="1">
          <mxGeometry x="20" y="35" width="60" height="30" as="geometry" />
        </mxCell>
        <mxCell id="VHwV5VS11oKMJuKwkRVE-16" value="" style="group" parent="1" vertex="1" connectable="0">
          <mxGeometry x="370" y="350" width="100" height="100" as="geometry" />
        </mxCell>
        <mxCell id="VHwV5VS11oKMJuKwkRVE-17" value="" style="rounded=0;whiteSpace=wrap;html=1;" parent="VHwV5VS11oKMJuKwkRVE-16" vertex="1">
          <mxGeometry width="100" height="100" as="geometry" />
        </mxCell>
        <mxCell id="VHwV5VS11oKMJuKwkRVE-18" value="9" style="rounded=0;whiteSpace=wrap;html=1;" parent="VHwV5VS11oKMJuKwkRVE-16" vertex="1">
          <mxGeometry x="40" y="80" width="20" height="20" as="geometry" />
        </mxCell>
        <mxCell id="VHwV5VS11oKMJuKwkRVE-19" value="9" style="rounded=0;whiteSpace=wrap;html=1;" parent="VHwV5VS11oKMJuKwkRVE-16" vertex="1">
          <mxGeometry x="40" width="20" height="20" as="geometry" />
        </mxCell>
        <mxCell id="VHwV5VS11oKMJuKwkRVE-20" value="РБ Зальцбург" style="text;html=1;align=center;verticalAlign=middle;whiteSpace=wrap;rounded=0;" parent="VHwV5VS11oKMJuKwkRVE-16" vertex="1">
          <mxGeometry x="20" y="35" width="60" height="30" as="geometry" />
        </mxCell>
        <mxCell id="VHwV5VS11oKMJuKwkRVE-21" value="" style="group" parent="1" vertex="1" connectable="0">
          <mxGeometry x="480" y="350" width="100" height="100" as="geometry" />
        </mxCell>
        <mxCell id="VHwV5VS11oKMJuKwkRVE-22" value="" style="rounded=0;whiteSpace=wrap;html=1;" parent="VHwV5VS11oKMJuKwkRVE-21" vertex="1">
          <mxGeometry width="100" height="100" as="geometry" />
        </mxCell>
        <mxCell id="VHwV5VS11oKMJuKwkRVE-23" value="10" style="rounded=0;whiteSpace=wrap;html=1;" parent="VHwV5VS11oKMJuKwkRVE-21" vertex="1">
          <mxGeometry x="40" y="80" width="20" height="20" as="geometry" />
        </mxCell>
        <mxCell id="VHwV5VS11oKMJuKwkRVE-24" value="10" style="rounded=0;whiteSpace=wrap;html=1;" parent="VHwV5VS11oKMJuKwkRVE-21" vertex="1">
          <mxGeometry x="40" width="20" height="20" as="geometry" />
        </mxCell>
        <mxCell id="VHwV5VS11oKMJuKwkRVE-25" value="Базель" style="text;html=1;align=center;verticalAlign=middle;whiteSpace=wrap;rounded=0;" parent="VHwV5VS11oKMJuKwkRVE-21" vertex="1">
          <mxGeometry x="10" y="35" width="80" height="30" as="geometry" />
        </mxCell>
      </root>
    </mxGraphModel>
  </diagram>
  <diagram name="FriendOf" id="O55XoQJWK5AJhcF2U9jT">
    <mxGraphModel dx="681" dy="802" grid="1" gridSize="10" guides="1" tooltips="1" connect="1" arrows="1" fold="1" page="1" pageScale="1" pageWidth="827" pageHeight="1169" math="0" shadow="0">
      <root>
        <mxCell id="0" />
        <mxCell id="1" parent="0" />
        <mxCell id="Qr7ekwmdfwkidauj2yJ--1" value="" style="group" parent="1" vertex="1" connectable="0">
          <mxGeometry x="50" y="70.00319148936168" width="111.06400000000002" height="138.82978723404253" as="geometry" />
        </mxCell>
        <mxCell id="Qr7ekwmdfwkidauj2yJ--2" value="Алексей" style="shape=umlActor;verticalLabelPosition=bottom;verticalAlign=top;html=1;outlineConnect=0;container=0;" parent="Qr7ekwmdfwkidauj2yJ--1" vertex="1">
          <mxGeometry x="23.13833333333332" y="9.255319148936167" width="64.78733333333334" height="129.5744680851064" as="geometry" />
        </mxCell>
        <mxCell id="Qr7ekwmdfwkidauj2yJ--3" value="1" style="text;html=1;align=center;verticalAlign=middle;whiteSpace=wrap;rounded=0;container=0;" parent="Qr7ekwmdfwkidauj2yJ--1" vertex="1">
          <mxGeometry width="111.06400000000001" height="55.53191489361703" as="geometry" />
        </mxCell>
        <mxCell id="Qr7ekwmdfwkidauj2yJ--4" value="" style="group" parent="1" vertex="1" connectable="0">
          <mxGeometry x="270.004" y="20.003191489361683" width="111.06400000000002" height="138.82978723404253" as="geometry" />
        </mxCell>
        <mxCell id="Qr7ekwmdfwkidauj2yJ--5" value="Мария" style="shape=umlActor;verticalLabelPosition=bottom;verticalAlign=top;html=1;outlineConnect=0;container=0;" parent="Qr7ekwmdfwkidauj2yJ--4" vertex="1">
          <mxGeometry x="9.99833333333332" y="9.255319148936167" width="64.78733333333334" height="129.5744680851064" as="geometry" />
        </mxCell>
        <mxCell id="Qr7ekwmdfwkidauj2yJ--6" value="2" style="text;html=1;align=center;verticalAlign=middle;whiteSpace=wrap;rounded=0;container=0;" parent="Qr7ekwmdfwkidauj2yJ--4" vertex="1">
          <mxGeometry x="-13.14" width="111.06400000000001" height="55.53191489361703" as="geometry" />
        </mxCell>
        <mxCell id="Qr7ekwmdfwkidauj2yJ--7" value="" style="group" parent="1" vertex="1" connectable="0">
          <mxGeometry x="679.998" y="320.0031914893617" width="111.06400000000002" height="138.82978723404253" as="geometry" />
        </mxCell>
        <mxCell id="Qr7ekwmdfwkidauj2yJ--8" value="Дмитрий" style="shape=umlActor;verticalLabelPosition=bottom;verticalAlign=top;html=1;outlineConnect=0;container=0;" parent="Qr7ekwmdfwkidauj2yJ--7" vertex="1">
          <mxGeometry x="23.13833333333332" y="9.255319148936167" width="64.78733333333334" height="129.5744680851064" as="geometry" />
        </mxCell>
        <mxCell id="Qr7ekwmdfwkidauj2yJ--9" value="3" style="text;html=1;align=center;verticalAlign=middle;whiteSpace=wrap;rounded=0;container=0;" parent="Qr7ekwmdfwkidauj2yJ--7" vertex="1">
          <mxGeometry width="111.06400000000001" height="55.53191489361703" as="geometry" />
        </mxCell>
        <mxCell id="Qr7ekwmdfwkidauj2yJ--10" value="" style="group" parent="1" vertex="1" connectable="0">
          <mxGeometry x="470.00199999999995" y="100.00319148936168" width="111.06399999999996" height="138.82978723404253" as="geometry" />
        </mxCell>
        <mxCell id="Qr7ekwmdfwkidauj2yJ--11" value="Екатерина" style="shape=umlActor;verticalLabelPosition=bottom;verticalAlign=top;html=1;outlineConnect=0;container=0;" parent="Qr7ekwmdfwkidauj2yJ--10" vertex="1">
          <mxGeometry x="23.13833333333332" y="9.255319148936167" width="64.78733333333334" height="129.5744680851064" as="geometry" />
        </mxCell>
        <mxCell id="Qr7ekwmdfwkidauj2yJ--12" value="4" style="text;html=1;align=center;verticalAlign=middle;whiteSpace=wrap;rounded=0;container=0;" parent="Qr7ekwmdfwkidauj2yJ--10" vertex="1">
          <mxGeometry width="111.06400000000001" height="55.53191489361703" as="geometry" />
        </mxCell>
        <mxCell id="Qr7ekwmdfwkidauj2yJ--13" value="" style="group" parent="1" vertex="1" connectable="0">
          <mxGeometry x="199.9960000000001" y="240.0031914893617" width="111.06399999999996" height="138.82978723404253" as="geometry" />
        </mxCell>
        <mxCell id="Qr7ekwmdfwkidauj2yJ--14" value="Сергей" style="shape=umlActor;verticalLabelPosition=bottom;verticalAlign=top;html=1;outlineConnect=0;container=0;" parent="Qr7ekwmdfwkidauj2yJ--13" vertex="1">
          <mxGeometry x="23.13833333333332" y="9.255319148936167" width="64.78733333333334" height="129.5744680851064" as="geometry" />
        </mxCell>
        <mxCell id="Qr7ekwmdfwkidauj2yJ--15" value="5" style="text;html=1;align=center;verticalAlign=middle;whiteSpace=wrap;rounded=0;container=0;" parent="Qr7ekwmdfwkidauj2yJ--13" vertex="1">
          <mxGeometry width="111.06400000000001" height="55.53191489361703" as="geometry" />
        </mxCell>
        <mxCell id="Qr7ekwmdfwkidauj2yJ--16" value="" style="group" parent="1" vertex="1" connectable="0">
          <mxGeometry x="50" y="600.0002127659574" width="111.06400000000002" height="138.82978723404256" as="geometry" />
        </mxCell>
        <mxCell id="Qr7ekwmdfwkidauj2yJ--17" value="Иван" style="shape=umlActor;verticalLabelPosition=bottom;verticalAlign=top;html=1;outlineConnect=0;container=0;" parent="Qr7ekwmdfwkidauj2yJ--16" vertex="1">
          <mxGeometry x="23.13833333333332" y="9.255319148936167" width="64.78733333333334" height="129.5744680851064" as="geometry" />
        </mxCell>
        <mxCell id="Qr7ekwmdfwkidauj2yJ--18" value="6" style="text;html=1;align=center;verticalAlign=middle;whiteSpace=wrap;rounded=0;container=0;" parent="Qr7ekwmdfwkidauj2yJ--16" vertex="1">
          <mxGeometry width="111.06400000000001" height="55.53191489361703" as="geometry" />
        </mxCell>
        <mxCell id="Qr7ekwmdfwkidauj2yJ--19" value="" style="group" parent="1" vertex="1" connectable="0">
          <mxGeometry x="220.00400000000002" y="790.0002127659575" width="111.06400000000002" height="138.82978723404256" as="geometry" />
        </mxCell>
        <mxCell id="Qr7ekwmdfwkidauj2yJ--20" value="Ольга" style="shape=umlActor;verticalLabelPosition=bottom;verticalAlign=top;html=1;outlineConnect=0;container=0;" parent="Qr7ekwmdfwkidauj2yJ--19" vertex="1">
          <mxGeometry x="23.13833333333332" y="9.255319148936167" width="64.78733333333334" height="129.5744680851064" as="geometry" />
        </mxCell>
        <mxCell id="Qr7ekwmdfwkidauj2yJ--21" value="7" style="text;html=1;align=center;verticalAlign=middle;whiteSpace=wrap;rounded=0;container=0;" parent="Qr7ekwmdfwkidauj2yJ--19" vertex="1">
          <mxGeometry width="111.06400000000001" height="55.53191489361703" as="geometry" />
        </mxCell>
        <mxCell id="Qr7ekwmdfwkidauj2yJ--22" value="" style="group" parent="1" vertex="1" connectable="0">
          <mxGeometry x="319.99800000000005" y="420.00021276595743" width="111.06400000000002" height="138.82978723404256" as="geometry" />
        </mxCell>
        <mxCell id="Qr7ekwmdfwkidauj2yJ--23" value="Константин" style="shape=umlActor;verticalLabelPosition=bottom;verticalAlign=top;html=1;outlineConnect=0;container=0;" parent="Qr7ekwmdfwkidauj2yJ--22" vertex="1">
          <mxGeometry x="23.13833333333332" y="9.255319148936167" width="64.78733333333334" height="129.5744680851064" as="geometry" />
        </mxCell>
        <mxCell id="Qr7ekwmdfwkidauj2yJ--24" value="8" style="text;html=1;align=center;verticalAlign=middle;whiteSpace=wrap;rounded=0;container=0;" parent="Qr7ekwmdfwkidauj2yJ--22" vertex="1">
          <mxGeometry width="111.06400000000001" height="55.53191489361703" as="geometry" />
        </mxCell>
        <mxCell id="Qr7ekwmdfwkidauj2yJ--25" value="" style="group" parent="1" vertex="1" connectable="0">
          <mxGeometry x="483.192" y="515.0002127659575" width="111.06399999999996" height="138.82978723404256" as="geometry" />
        </mxCell>
        <mxCell id="Qr7ekwmdfwkidauj2yJ--26" value="Юлия" style="shape=umlActor;verticalLabelPosition=bottom;verticalAlign=top;html=1;outlineConnect=0;container=0;" parent="Qr7ekwmdfwkidauj2yJ--25" vertex="1">
          <mxGeometry x="23.13833333333332" y="9.255319148936167" width="64.78733333333334" height="129.5744680851064" as="geometry" />
        </mxCell>
        <mxCell id="Qr7ekwmdfwkidauj2yJ--27" value="9" style="text;html=1;align=center;verticalAlign=middle;whiteSpace=wrap;rounded=0;container=0;" parent="Qr7ekwmdfwkidauj2yJ--25" vertex="1">
          <mxGeometry width="111.06400000000001" height="55.53191489361703" as="geometry" />
        </mxCell>
        <mxCell id="Qr7ekwmdfwkidauj2yJ--28" value="" style="group" parent="1" vertex="1" connectable="0">
          <mxGeometry x="629.9960000000001" y="760.0002127659575" width="111.06399999999996" height="138.82978723404256" as="geometry" />
        </mxCell>
        <mxCell id="Qr7ekwmdfwkidauj2yJ--29" value="Максим" style="shape=umlActor;verticalLabelPosition=bottom;verticalAlign=top;html=1;outlineConnect=0;container=0;" parent="Qr7ekwmdfwkidauj2yJ--28" vertex="1">
          <mxGeometry x="23.13833333333332" y="9.255319148936167" width="64.78733333333334" height="129.5744680851064" as="geometry" />
        </mxCell>
        <mxCell id="Qr7ekwmdfwkidauj2yJ--30" value="10" style="text;html=1;align=center;verticalAlign=middle;whiteSpace=wrap;rounded=0;container=0;" parent="Qr7ekwmdfwkidauj2yJ--28" vertex="1">
          <mxGeometry width="111.06400000000001" height="55.53191489361703" as="geometry" />
        </mxCell>
        <mxCell id="Qr7ekwmdfwkidauj2yJ--34" style="edgeStyle=orthogonalEdgeStyle;rounded=0;orthogonalLoop=1;jettySize=auto;html=1;" parent="1" source="Qr7ekwmdfwkidauj2yJ--2" target="Qr7ekwmdfwkidauj2yJ--5" edge="1">
          <mxGeometry relative="1" as="geometry" />
        </mxCell>
        <mxCell id="Qr7ekwmdfwkidauj2yJ--49" style="edgeStyle=orthogonalEdgeStyle;rounded=0;orthogonalLoop=1;jettySize=auto;html=1;" parent="1" source="Qr7ekwmdfwkidauj2yJ--2" target="Qr7ekwmdfwkidauj2yJ--14" edge="1">
          <mxGeometry relative="1" as="geometry" />
        </mxCell>
        <mxCell id="Qr7ekwmdfwkidauj2yJ--51" style="edgeStyle=orthogonalEdgeStyle;rounded=0;orthogonalLoop=1;jettySize=auto;html=1;" parent="1" source="Qr7ekwmdfwkidauj2yJ--5" target="Qr7ekwmdfwkidauj2yJ--8" edge="1">
          <mxGeometry relative="1" as="geometry" />
        </mxCell>
        <mxCell id="Qr7ekwmdfwkidauj2yJ--52" style="edgeStyle=orthogonalEdgeStyle;rounded=0;orthogonalLoop=1;jettySize=auto;html=1;" parent="1" source="Qr7ekwmdfwkidauj2yJ--8" target="Qr7ekwmdfwkidauj2yJ--2" edge="1">
          <mxGeometry relative="1" as="geometry" />
        </mxCell>
        <mxCell id="Qr7ekwmdfwkidauj2yJ--53" style="edgeStyle=orthogonalEdgeStyle;rounded=0;orthogonalLoop=1;jettySize=auto;html=1;" parent="1" source="Qr7ekwmdfwkidauj2yJ--8" target="Qr7ekwmdfwkidauj2yJ--17" edge="1">
          <mxGeometry relative="1" as="geometry" />
        </mxCell>
        <mxCell id="Qr7ekwmdfwkidauj2yJ--54" style="edgeStyle=orthogonalEdgeStyle;rounded=0;orthogonalLoop=1;jettySize=auto;html=1;" parent="1" source="Qr7ekwmdfwkidauj2yJ--11" target="Qr7ekwmdfwkidauj2yJ--5" edge="1">
          <mxGeometry relative="1" as="geometry" />
        </mxCell>
        <mxCell id="Qr7ekwmdfwkidauj2yJ--55" style="edgeStyle=orthogonalEdgeStyle;rounded=0;orthogonalLoop=1;jettySize=auto;html=1;" parent="1" source="Qr7ekwmdfwkidauj2yJ--14" target="Qr7ekwmdfwkidauj2yJ--11" edge="1">
          <mxGeometry relative="1" as="geometry" />
        </mxCell>
        <mxCell id="Qr7ekwmdfwkidauj2yJ--57" style="edgeStyle=orthogonalEdgeStyle;rounded=0;orthogonalLoop=1;jettySize=auto;html=1;" parent="1" source="Qr7ekwmdfwkidauj2yJ--17" target="Qr7ekwmdfwkidauj2yJ--20" edge="1">
          <mxGeometry relative="1" as="geometry" />
        </mxCell>
        <mxCell id="Qr7ekwmdfwkidauj2yJ--58" style="edgeStyle=orthogonalEdgeStyle;rounded=0;orthogonalLoop=1;jettySize=auto;html=1;" parent="1" source="Qr7ekwmdfwkidauj2yJ--17" target="Qr7ekwmdfwkidauj2yJ--23" edge="1">
          <mxGeometry relative="1" as="geometry" />
        </mxCell>
        <mxCell id="Qr7ekwmdfwkidauj2yJ--60" style="edgeStyle=orthogonalEdgeStyle;rounded=0;orthogonalLoop=1;jettySize=auto;html=1;" parent="1" source="Qr7ekwmdfwkidauj2yJ--23" target="Qr7ekwmdfwkidauj2yJ--8" edge="1">
          <mxGeometry relative="1" as="geometry" />
        </mxCell>
        <mxCell id="Qr7ekwmdfwkidauj2yJ--61" style="edgeStyle=orthogonalEdgeStyle;rounded=0;orthogonalLoop=1;jettySize=auto;html=1;" parent="1" source="Qr7ekwmdfwkidauj2yJ--26" target="Qr7ekwmdfwkidauj2yJ--29" edge="1">
          <mxGeometry relative="1" as="geometry" />
        </mxCell>
        <mxCell id="Qr7ekwmdfwkidauj2yJ--62" style="edgeStyle=orthogonalEdgeStyle;rounded=0;orthogonalLoop=1;jettySize=auto;html=1;" parent="1" source="Qr7ekwmdfwkidauj2yJ--29" target="Qr7ekwmdfwkidauj2yJ--20" edge="1">
          <mxGeometry relative="1" as="geometry" />
        </mxCell>
        <mxCell id="Qr7ekwmdfwkidauj2yJ--66" value="&lt;font style=&quot;font-size: 72px;&quot;&gt;FRIENDOF&lt;/font&gt;" style="text;html=1;align=center;verticalAlign=middle;resizable=0;points=[];autosize=1;strokeColor=none;fillColor=none;" parent="1" vertex="1">
          <mxGeometry x="230" y="1000" width="390" height="100" as="geometry" />
        </mxCell>
      </root>
    </mxGraphModel>
  </diagram>
  <diagram name="LivesIn" id="RFHWb7VVhkPsOns5Q3t5">
    <mxGraphModel dx="1900" dy="1372" grid="1" gridSize="10" guides="1" tooltips="1" connect="1" arrows="1" fold="1" page="1" pageScale="1" pageWidth="827" pageHeight="1169" math="0" shadow="0">
      <root>
        <mxCell id="0" />
        <mxCell id="1" parent="0" />
        <mxCell id="TVVVe7b4yLDSOndJgiz9-1" value="" style="group" vertex="1" connectable="0" parent="1">
          <mxGeometry x="280" y="551.39" width="80" height="80" as="geometry" />
        </mxCell>
        <mxCell id="TVVVe7b4yLDSOndJgiz9-2" value="" style="ellipse;whiteSpace=wrap;html=1;aspect=fixed;" vertex="1" parent="TVVVe7b4yLDSOndJgiz9-1">
          <mxGeometry width="80" height="80" as="geometry" />
        </mxCell>
        <mxCell id="TVVVe7b4yLDSOndJgiz9-3" value="Европа" style="ellipse;whiteSpace=wrap;html=1;aspect=fixed;" vertex="1" parent="TVVVe7b4yLDSOndJgiz9-1">
          <mxGeometry x="15" y="30" width="50" height="50" as="geometry" />
        </mxCell>
        <mxCell id="TVVVe7b4yLDSOndJgiz9-4" value="&lt;font style=&quot;font-size: 10px;&quot;&gt;Германия&lt;/font&gt;" style="text;html=1;align=center;verticalAlign=middle;whiteSpace=wrap;rounded=0;" vertex="1" parent="TVVVe7b4yLDSOndJgiz9-1">
          <mxGeometry x="10" y="10" width="60" height="30" as="geometry" />
        </mxCell>
        <mxCell id="TVVVe7b4yLDSOndJgiz9-5" value="1" style="ellipse;whiteSpace=wrap;html=1;aspect=fixed;" vertex="1" parent="TVVVe7b4yLDSOndJgiz9-1">
          <mxGeometry x="30" width="20" height="20" as="geometry" />
        </mxCell>
        <mxCell id="TVVVe7b4yLDSOndJgiz9-6" value="" style="group" vertex="1" connectable="0" parent="1">
          <mxGeometry x="490" y="280" width="80" height="80" as="geometry" />
        </mxCell>
        <mxCell id="TVVVe7b4yLDSOndJgiz9-7" value="" style="ellipse;whiteSpace=wrap;html=1;aspect=fixed;" vertex="1" parent="TVVVe7b4yLDSOndJgiz9-6">
          <mxGeometry width="80" height="80" as="geometry" />
        </mxCell>
        <mxCell id="TVVVe7b4yLDSOndJgiz9-8" value="Европа" style="ellipse;whiteSpace=wrap;html=1;aspect=fixed;" vertex="1" parent="TVVVe7b4yLDSOndJgiz9-6">
          <mxGeometry x="15" y="30" width="50" height="50" as="geometry" />
        </mxCell>
        <mxCell id="TVVVe7b4yLDSOndJgiz9-9" value="&lt;font data-cur=&quot;cursor&quot; style=&quot;font-size: 10px;&quot;&gt;Испания&lt;/font&gt;" style="text;html=1;align=center;verticalAlign=middle;whiteSpace=wrap;rounded=0;" vertex="1" parent="TVVVe7b4yLDSOndJgiz9-6">
          <mxGeometry x="10" y="10" width="60" height="30" as="geometry" />
        </mxCell>
        <mxCell id="TVVVe7b4yLDSOndJgiz9-10" value="2" style="ellipse;whiteSpace=wrap;html=1;aspect=fixed;" vertex="1" parent="TVVVe7b4yLDSOndJgiz9-6">
          <mxGeometry x="30" width="20" height="20" as="geometry" />
        </mxCell>
        <mxCell id="TVVVe7b4yLDSOndJgiz9-11" value="" style="group" vertex="1" connectable="0" parent="1">
          <mxGeometry x="210" y="120" width="80" height="80" as="geometry" />
        </mxCell>
        <mxCell id="TVVVe7b4yLDSOndJgiz9-12" value="" style="ellipse;whiteSpace=wrap;html=1;aspect=fixed;" vertex="1" parent="TVVVe7b4yLDSOndJgiz9-11">
          <mxGeometry width="80" height="80" as="geometry" />
        </mxCell>
        <mxCell id="TVVVe7b4yLDSOndJgiz9-13" value="Европа" style="ellipse;whiteSpace=wrap;html=1;aspect=fixed;" vertex="1" parent="TVVVe7b4yLDSOndJgiz9-11">
          <mxGeometry x="15" y="30" width="50" height="50" as="geometry" />
        </mxCell>
        <mxCell id="TVVVe7b4yLDSOndJgiz9-14" value="&lt;font data-cur=&quot;cursor&quot; style=&quot;font-size: 10px;&quot;&gt;Италия&lt;/font&gt;" style="text;html=1;align=center;verticalAlign=middle;whiteSpace=wrap;rounded=0;" vertex="1" parent="TVVVe7b4yLDSOndJgiz9-11">
          <mxGeometry x="10" y="10" width="60" height="30" as="geometry" />
        </mxCell>
        <mxCell id="TVVVe7b4yLDSOndJgiz9-15" value="3" style="ellipse;whiteSpace=wrap;html=1;aspect=fixed;" vertex="1" parent="TVVVe7b4yLDSOndJgiz9-11">
          <mxGeometry x="30" width="20" height="20" as="geometry" />
        </mxCell>
        <mxCell id="TVVVe7b4yLDSOndJgiz9-16" value="" style="group" vertex="1" connectable="0" parent="1">
          <mxGeometry x="530" y="764.05" width="80" height="80" as="geometry" />
        </mxCell>
        <mxCell id="TVVVe7b4yLDSOndJgiz9-17" value="" style="ellipse;whiteSpace=wrap;html=1;aspect=fixed;" vertex="1" parent="TVVVe7b4yLDSOndJgiz9-16">
          <mxGeometry width="80" height="80" as="geometry" />
        </mxCell>
        <mxCell id="TVVVe7b4yLDSOndJgiz9-18" value="Европа" style="ellipse;whiteSpace=wrap;html=1;aspect=fixed;" vertex="1" parent="TVVVe7b4yLDSOndJgiz9-16">
          <mxGeometry x="15" y="30" width="50" height="50" as="geometry" />
        </mxCell>
        <mxCell id="TVVVe7b4yLDSOndJgiz9-19" value="&lt;font data-cur=&quot;cursor&quot; style=&quot;font-size: 10px;&quot;&gt;Англия&lt;/font&gt;" style="text;html=1;align=center;verticalAlign=middle;whiteSpace=wrap;rounded=0;" vertex="1" parent="TVVVe7b4yLDSOndJgiz9-16">
          <mxGeometry x="10" y="10" width="60" height="30" as="geometry" />
        </mxCell>
        <mxCell id="TVVVe7b4yLDSOndJgiz9-20" value="4" style="ellipse;whiteSpace=wrap;html=1;aspect=fixed;" vertex="1" parent="TVVVe7b4yLDSOndJgiz9-16">
          <mxGeometry x="30" width="20" height="20" as="geometry" />
        </mxCell>
        <mxCell id="TVVVe7b4yLDSOndJgiz9-21" value="" style="group" vertex="1" connectable="0" parent="1">
          <mxGeometry x="490" y="114.05" width="80" height="80" as="geometry" />
        </mxCell>
        <mxCell id="TVVVe7b4yLDSOndJgiz9-22" value="" style="ellipse;whiteSpace=wrap;html=1;aspect=fixed;" vertex="1" parent="TVVVe7b4yLDSOndJgiz9-21">
          <mxGeometry width="80" height="80" as="geometry" />
        </mxCell>
        <mxCell id="TVVVe7b4yLDSOndJgiz9-23" value="Европа" style="ellipse;whiteSpace=wrap;html=1;aspect=fixed;" vertex="1" parent="TVVVe7b4yLDSOndJgiz9-21">
          <mxGeometry x="15" y="30" width="50" height="50" as="geometry" />
        </mxCell>
        <mxCell id="TVVVe7b4yLDSOndJgiz9-24" value="&lt;font data-cur=&quot;cursor&quot; style=&quot;font-size: 10px;&quot;&gt;Франция&lt;/font&gt;" style="text;html=1;align=center;verticalAlign=middle;whiteSpace=wrap;rounded=0;" vertex="1" parent="TVVVe7b4yLDSOndJgiz9-21">
          <mxGeometry x="10" y="10" width="60" height="30" as="geometry" />
        </mxCell>
        <mxCell id="TVVVe7b4yLDSOndJgiz9-25" value="5" style="ellipse;whiteSpace=wrap;html=1;aspect=fixed;" vertex="1" parent="TVVVe7b4yLDSOndJgiz9-21">
          <mxGeometry x="30" width="20" height="20" as="geometry" />
        </mxCell>
        <mxCell id="TVVVe7b4yLDSOndJgiz9-26" value="" style="group" vertex="1" connectable="0" parent="1">
          <mxGeometry x="80" y="730" width="80" height="80" as="geometry" />
        </mxCell>
        <mxCell id="TVVVe7b4yLDSOndJgiz9-27" value="" style="ellipse;whiteSpace=wrap;html=1;aspect=fixed;" vertex="1" parent="TVVVe7b4yLDSOndJgiz9-26">
          <mxGeometry width="80" height="80" as="geometry" />
        </mxCell>
        <mxCell id="TVVVe7b4yLDSOndJgiz9-28" value="Европа" style="ellipse;whiteSpace=wrap;html=1;aspect=fixed;" vertex="1" parent="TVVVe7b4yLDSOndJgiz9-26">
          <mxGeometry x="15" y="30" width="50" height="50" as="geometry" />
        </mxCell>
        <mxCell id="TVVVe7b4yLDSOndJgiz9-29" value="&lt;font data-cur=&quot;cursor&quot; style=&quot;font-size: 10px;&quot;&gt;Португалия&lt;/font&gt;" style="text;html=1;align=center;verticalAlign=middle;whiteSpace=wrap;rounded=0;" vertex="1" parent="TVVVe7b4yLDSOndJgiz9-26">
          <mxGeometry x="10" y="10" width="60" height="30" as="geometry" />
        </mxCell>
        <mxCell id="TVVVe7b4yLDSOndJgiz9-30" value="6" style="ellipse;whiteSpace=wrap;html=1;aspect=fixed;" vertex="1" parent="TVVVe7b4yLDSOndJgiz9-26">
          <mxGeometry x="30" width="20" height="20" as="geometry" />
        </mxCell>
        <mxCell id="TVVVe7b4yLDSOndJgiz9-31" value="" style="group" vertex="1" connectable="0" parent="1">
          <mxGeometry x="220" y="420" width="80" height="80" as="geometry" />
        </mxCell>
        <mxCell id="TVVVe7b4yLDSOndJgiz9-32" value="" style="ellipse;whiteSpace=wrap;html=1;aspect=fixed;" vertex="1" parent="TVVVe7b4yLDSOndJgiz9-31">
          <mxGeometry width="80" height="80" as="geometry" />
        </mxCell>
        <mxCell id="TVVVe7b4yLDSOndJgiz9-33" value="Европа" style="ellipse;whiteSpace=wrap;html=1;aspect=fixed;" vertex="1" parent="TVVVe7b4yLDSOndJgiz9-31">
          <mxGeometry x="15" y="30" width="50" height="50" as="geometry" />
        </mxCell>
        <mxCell id="TVVVe7b4yLDSOndJgiz9-34" value="&lt;font data-cur=&quot;cursor&quot; style=&quot;font-size: 10px;&quot;&gt;Нидерланды&lt;/font&gt;" style="text;html=1;align=center;verticalAlign=middle;whiteSpace=wrap;rounded=0;" vertex="1" parent="TVVVe7b4yLDSOndJgiz9-31">
          <mxGeometry x="10" y="10" width="60" height="30" as="geometry" />
        </mxCell>
        <mxCell id="TVVVe7b4yLDSOndJgiz9-35" value="7" style="ellipse;whiteSpace=wrap;html=1;aspect=fixed;" vertex="1" parent="TVVVe7b4yLDSOndJgiz9-31">
          <mxGeometry x="30" width="20" height="20" as="geometry" />
        </mxCell>
        <mxCell id="TVVVe7b4yLDSOndJgiz9-36" value="" style="group" vertex="1" connectable="0" parent="1">
          <mxGeometry x="430" y="420" width="80" height="80" as="geometry" />
        </mxCell>
        <mxCell id="TVVVe7b4yLDSOndJgiz9-37" value="" style="ellipse;whiteSpace=wrap;html=1;aspect=fixed;" vertex="1" parent="TVVVe7b4yLDSOndJgiz9-36">
          <mxGeometry width="80" height="80" as="geometry" />
        </mxCell>
        <mxCell id="TVVVe7b4yLDSOndJgiz9-38" value="Европа" style="ellipse;whiteSpace=wrap;html=1;aspect=fixed;" vertex="1" parent="TVVVe7b4yLDSOndJgiz9-36">
          <mxGeometry x="15" y="30" width="50" height="50" as="geometry" />
        </mxCell>
        <mxCell id="TVVVe7b4yLDSOndJgiz9-39" value="&lt;font data-cur=&quot;cursor&quot; style=&quot;font-size: 10px;&quot;&gt;Бельгия&lt;/font&gt;" style="text;html=1;align=center;verticalAlign=middle;whiteSpace=wrap;rounded=0;" vertex="1" parent="TVVVe7b4yLDSOndJgiz9-36">
          <mxGeometry x="10" y="10" width="60" height="30" as="geometry" />
        </mxCell>
        <mxCell id="TVVVe7b4yLDSOndJgiz9-40" value="8" style="ellipse;whiteSpace=wrap;html=1;aspect=fixed;" vertex="1" parent="TVVVe7b4yLDSOndJgiz9-36">
          <mxGeometry x="30" width="20" height="20" as="geometry" />
        </mxCell>
        <mxCell id="TVVVe7b4yLDSOndJgiz9-41" value="" style="group" vertex="1" connectable="0" parent="1">
          <mxGeometry x="110" y="300" width="80" height="80" as="geometry" />
        </mxCell>
        <mxCell id="TVVVe7b4yLDSOndJgiz9-42" value="" style="ellipse;whiteSpace=wrap;html=1;aspect=fixed;" vertex="1" parent="TVVVe7b4yLDSOndJgiz9-41">
          <mxGeometry width="80" height="80" as="geometry" />
        </mxCell>
        <mxCell id="TVVVe7b4yLDSOndJgiz9-43" value="Европа" style="ellipse;whiteSpace=wrap;html=1;aspect=fixed;" vertex="1" parent="TVVVe7b4yLDSOndJgiz9-41">
          <mxGeometry x="15" y="30" width="50" height="50" as="geometry" />
        </mxCell>
        <mxCell id="TVVVe7b4yLDSOndJgiz9-44" value="&lt;font data-cur=&quot;cursor&quot; style=&quot;font-size: 10px;&quot;&gt;Австрия&lt;/font&gt;" style="text;html=1;align=center;verticalAlign=middle;whiteSpace=wrap;rounded=0;" vertex="1" parent="TVVVe7b4yLDSOndJgiz9-41">
          <mxGeometry x="10" y="10" width="60" height="30" as="geometry" />
        </mxCell>
        <mxCell id="TVVVe7b4yLDSOndJgiz9-45" value="9" style="ellipse;whiteSpace=wrap;html=1;aspect=fixed;" vertex="1" parent="TVVVe7b4yLDSOndJgiz9-41">
          <mxGeometry x="30" width="20" height="20" as="geometry" />
        </mxCell>
        <mxCell id="TVVVe7b4yLDSOndJgiz9-46" value="" style="group" vertex="1" connectable="0" parent="1">
          <mxGeometry x="320" y="420" width="80" height="80" as="geometry" />
        </mxCell>
        <mxCell id="TVVVe7b4yLDSOndJgiz9-47" value="" style="ellipse;whiteSpace=wrap;html=1;aspect=fixed;" vertex="1" parent="TVVVe7b4yLDSOndJgiz9-46">
          <mxGeometry width="80" height="80" as="geometry" />
        </mxCell>
        <mxCell id="TVVVe7b4yLDSOndJgiz9-48" value="Европа" style="ellipse;whiteSpace=wrap;html=1;aspect=fixed;" vertex="1" parent="TVVVe7b4yLDSOndJgiz9-46">
          <mxGeometry x="15" y="30" width="50" height="50" as="geometry" />
        </mxCell>
        <mxCell id="TVVVe7b4yLDSOndJgiz9-49" value="&lt;span data-cur=&quot;cursor&quot; style=&quot;font-size: 10px;&quot;&gt;Швейцария&lt;/span&gt;" style="text;html=1;align=center;verticalAlign=middle;whiteSpace=wrap;rounded=0;" vertex="1" parent="TVVVe7b4yLDSOndJgiz9-46">
          <mxGeometry x="10" y="10" width="60" height="30" as="geometry" />
        </mxCell>
        <mxCell id="TVVVe7b4yLDSOndJgiz9-50" value="10" style="ellipse;whiteSpace=wrap;html=1;aspect=fixed;" vertex="1" parent="TVVVe7b4yLDSOndJgiz9-46">
          <mxGeometry x="30" width="20" height="20" as="geometry" />
        </mxCell>
        <mxCell id="hRepeUUJbhkyZaVX98qG-1" value="" style="group" vertex="1" connectable="0" parent="1">
          <mxGeometry x="260" y="730.0031914893617" width="111.06400000000002" height="138.82978723404253" as="geometry" />
        </mxCell>
        <mxCell id="hRepeUUJbhkyZaVX98qG-2" value="Алексей" style="shape=umlActor;verticalLabelPosition=bottom;verticalAlign=top;html=1;outlineConnect=0;container=0;" vertex="1" parent="hRepeUUJbhkyZaVX98qG-1">
          <mxGeometry x="23.13833333333332" y="9.255319148936167" width="64.78733333333334" height="129.5744680851064" as="geometry" />
        </mxCell>
        <mxCell id="hRepeUUJbhkyZaVX98qG-3" value="1" style="text;html=1;align=center;verticalAlign=middle;whiteSpace=wrap;rounded=0;container=0;" vertex="1" parent="hRepeUUJbhkyZaVX98qG-1">
          <mxGeometry width="111.06400000000001" height="55.53191489361703" as="geometry" />
        </mxCell>
        <mxCell id="hRepeUUJbhkyZaVX98qG-4" value="" style="group" vertex="1" connectable="0" parent="1">
          <mxGeometry x="100.00400000000013" y="430.0031914893617" width="111.06400000000002" height="138.82978723404253" as="geometry" />
        </mxCell>
        <mxCell id="hRepeUUJbhkyZaVX98qG-5" value="Мария" style="shape=umlActor;verticalLabelPosition=bottom;verticalAlign=top;html=1;outlineConnect=0;container=0;" vertex="1" parent="hRepeUUJbhkyZaVX98qG-4">
          <mxGeometry x="23.13833333333332" y="9.255319148936167" width="64.78733333333334" height="129.5744680851064" as="geometry" />
        </mxCell>
        <mxCell id="hRepeUUJbhkyZaVX98qG-6" value="2" style="text;html=1;align=center;verticalAlign=middle;whiteSpace=wrap;rounded=0;container=0;" vertex="1" parent="hRepeUUJbhkyZaVX98qG-4">
          <mxGeometry width="111.06400000000001" height="55.53191489361703" as="geometry" />
        </mxCell>
        <mxCell id="hRepeUUJbhkyZaVX98qG-7" value="" style="group" vertex="1" connectable="0" parent="1">
          <mxGeometry x="220" y="250.59" width="111.06" height="138.83" as="geometry" />
        </mxCell>
        <mxCell id="hRepeUUJbhkyZaVX98qG-8" value="Дмитрий" style="shape=umlActor;verticalLabelPosition=bottom;verticalAlign=top;html=1;outlineConnect=0;container=0;" vertex="1" parent="hRepeUUJbhkyZaVX98qG-7">
          <mxGeometry x="23.137499999999985" y="9.255333333333333" width="64.785" height="129.57466666666673" as="geometry" />
        </mxCell>
        <mxCell id="hRepeUUJbhkyZaVX98qG-9" value="3" style="text;html=1;align=center;verticalAlign=middle;whiteSpace=wrap;rounded=0;container=0;" vertex="1" parent="hRepeUUJbhkyZaVX98qG-7">
          <mxGeometry width="111.05999999999999" height="55.532000000000025" as="geometry" />
        </mxCell>
        <mxCell id="hRepeUUJbhkyZaVX98qG-10" value="" style="group" vertex="1" connectable="0" parent="1">
          <mxGeometry x="669.992" y="250.59319148936171" width="111.06399999999996" height="138.82978723404253" as="geometry" />
        </mxCell>
        <mxCell id="hRepeUUJbhkyZaVX98qG-11" value="Екатерина" style="shape=umlActor;verticalLabelPosition=bottom;verticalAlign=top;html=1;outlineConnect=0;container=0;" vertex="1" parent="hRepeUUJbhkyZaVX98qG-10">
          <mxGeometry x="23.13833333333332" y="9.255319148936167" width="64.78733333333334" height="129.5744680851064" as="geometry" />
        </mxCell>
        <mxCell id="hRepeUUJbhkyZaVX98qG-12" value="4" style="text;html=1;align=center;verticalAlign=middle;whiteSpace=wrap;rounded=0;container=0;" vertex="1" parent="hRepeUUJbhkyZaVX98qG-10">
          <mxGeometry width="111.06400000000001" height="55.53191489361703" as="geometry" />
        </mxCell>
        <mxCell id="hRepeUUJbhkyZaVX98qG-13" value="" style="group" vertex="1" connectable="0" parent="1">
          <mxGeometry x="669.9960000000001" y="80.00319148936171" width="111.06399999999996" height="138.82978723404253" as="geometry" />
        </mxCell>
        <mxCell id="hRepeUUJbhkyZaVX98qG-14" value="Сергей" style="shape=umlActor;verticalLabelPosition=bottom;verticalAlign=top;html=1;outlineConnect=0;container=0;" vertex="1" parent="hRepeUUJbhkyZaVX98qG-13">
          <mxGeometry x="23.13833333333332" y="9.255319148936167" width="64.78733333333334" height="129.5744680851064" as="geometry" />
        </mxCell>
        <mxCell id="hRepeUUJbhkyZaVX98qG-15" value="5" style="text;html=1;align=center;verticalAlign=middle;whiteSpace=wrap;rounded=0;container=0;" vertex="1" parent="hRepeUUJbhkyZaVX98qG-13">
          <mxGeometry width="111.06400000000001" height="55.53191489361703" as="geometry" />
        </mxCell>
        <mxCell id="hRepeUUJbhkyZaVX98qG-16" value="" style="group" vertex="1" connectable="0" parent="1">
          <mxGeometry y="90.00021276595749" width="111.06400000000002" height="138.82978723404256" as="geometry" />
        </mxCell>
        <mxCell id="hRepeUUJbhkyZaVX98qG-17" value="Иван" style="shape=umlActor;verticalLabelPosition=bottom;verticalAlign=top;html=1;outlineConnect=0;container=0;" vertex="1" parent="hRepeUUJbhkyZaVX98qG-16">
          <mxGeometry x="23.13833333333332" y="9.255319148936167" width="64.78733333333334" height="129.5744680851064" as="geometry" />
        </mxCell>
        <mxCell id="hRepeUUJbhkyZaVX98qG-18" value="6" style="text;html=1;align=center;verticalAlign=middle;whiteSpace=wrap;rounded=0;container=0;" vertex="1" parent="hRepeUUJbhkyZaVX98qG-16">
          <mxGeometry width="111.06400000000001" height="55.53191489361703" as="geometry" />
        </mxCell>
        <mxCell id="hRepeUUJbhkyZaVX98qG-19" value="" style="group" vertex="1" connectable="0" parent="1">
          <mxGeometry x="310.004" y="80.00021276595749" width="111.06400000000002" height="138.82978723404256" as="geometry" />
        </mxCell>
        <mxCell id="hRepeUUJbhkyZaVX98qG-20" value="Ольга" style="shape=umlActor;verticalLabelPosition=bottom;verticalAlign=top;html=1;outlineConnect=0;container=0;" vertex="1" parent="hRepeUUJbhkyZaVX98qG-19">
          <mxGeometry x="23.13833333333332" y="9.255319148936167" width="64.78733333333334" height="129.5744680851064" as="geometry" />
        </mxCell>
        <mxCell id="hRepeUUJbhkyZaVX98qG-21" value="7" style="text;html=1;align=center;verticalAlign=middle;whiteSpace=wrap;rounded=0;container=0;" vertex="1" parent="hRepeUUJbhkyZaVX98qG-19">
          <mxGeometry width="111.06400000000001" height="55.53191489361703" as="geometry" />
        </mxCell>
        <mxCell id="hRepeUUJbhkyZaVX98qG-22" value="" style="group" vertex="1" connectable="0" parent="1">
          <mxGeometry x="179.99800000000005" y="610.0002127659575" width="111.06400000000002" height="138.82978723404256" as="geometry" />
        </mxCell>
        <mxCell id="hRepeUUJbhkyZaVX98qG-23" value="Константин" style="shape=umlActor;verticalLabelPosition=bottom;verticalAlign=top;html=1;outlineConnect=0;container=0;" vertex="1" parent="hRepeUUJbhkyZaVX98qG-22">
          <mxGeometry x="23.13833333333332" y="9.255319148936167" width="64.78733333333334" height="129.5744680851064" as="geometry" />
        </mxCell>
        <mxCell id="hRepeUUJbhkyZaVX98qG-24" value="8" style="text;html=1;align=center;verticalAlign=middle;whiteSpace=wrap;rounded=0;container=0;" vertex="1" parent="hRepeUUJbhkyZaVX98qG-22">
          <mxGeometry width="111.06400000000001" height="55.53191489361703" as="geometry" />
        </mxCell>
        <mxCell id="hRepeUUJbhkyZaVX98qG-25" value="" style="group" vertex="1" connectable="0" parent="1">
          <mxGeometry x="414.002" y="530.0002127659575" width="111.06399999999996" height="138.82978723404256" as="geometry" />
        </mxCell>
        <mxCell id="hRepeUUJbhkyZaVX98qG-26" value="Юлия" style="shape=umlActor;verticalLabelPosition=bottom;verticalAlign=top;html=1;outlineConnect=0;container=0;" vertex="1" parent="hRepeUUJbhkyZaVX98qG-25">
          <mxGeometry x="23.13833333333332" y="9.255319148936167" width="64.78733333333334" height="129.5744680851064" as="geometry" />
        </mxCell>
        <mxCell id="hRepeUUJbhkyZaVX98qG-27" value="9" style="text;html=1;align=center;verticalAlign=middle;whiteSpace=wrap;rounded=0;container=0;" vertex="1" parent="hRepeUUJbhkyZaVX98qG-25">
          <mxGeometry width="111.06400000000001" height="55.53191489361703" as="geometry" />
        </mxCell>
        <mxCell id="hRepeUUJbhkyZaVX98qG-28" value="" style="group" vertex="1" connectable="0" parent="1">
          <mxGeometry x="524.2560000000001" y="563.6202127659575" width="111.06399999999996" height="138.82978723404256" as="geometry" />
        </mxCell>
        <mxCell id="hRepeUUJbhkyZaVX98qG-29" value="Максим" style="shape=umlActor;verticalLabelPosition=bottom;verticalAlign=top;html=1;outlineConnect=0;container=0;" vertex="1" parent="hRepeUUJbhkyZaVX98qG-28">
          <mxGeometry x="23.13833333333332" y="9.255319148936167" width="64.78733333333334" height="129.5744680851064" as="geometry" />
        </mxCell>
        <mxCell id="hRepeUUJbhkyZaVX98qG-30" value="10" style="text;html=1;align=center;verticalAlign=middle;whiteSpace=wrap;rounded=0;container=0;" vertex="1" parent="hRepeUUJbhkyZaVX98qG-28">
          <mxGeometry width="111.06400000000001" height="55.53191489361703" as="geometry" />
        </mxCell>
        <mxCell id="hRepeUUJbhkyZaVX98qG-31" style="edgeStyle=orthogonalEdgeStyle;rounded=0;orthogonalLoop=1;jettySize=auto;html=1;" edge="1" parent="1" source="hRepeUUJbhkyZaVX98qG-2" target="TVVVe7b4yLDSOndJgiz9-17">
          <mxGeometry relative="1" as="geometry" />
        </mxCell>
        <mxCell id="hRepeUUJbhkyZaVX98qG-32" style="edgeStyle=orthogonalEdgeStyle;rounded=0;orthogonalLoop=1;jettySize=auto;html=1;" edge="1" parent="1" source="hRepeUUJbhkyZaVX98qG-5" target="TVVVe7b4yLDSOndJgiz9-42">
          <mxGeometry relative="1" as="geometry" />
        </mxCell>
        <mxCell id="hRepeUUJbhkyZaVX98qG-34" style="edgeStyle=orthogonalEdgeStyle;rounded=0;orthogonalLoop=1;jettySize=auto;html=1;" edge="1" parent="1" source="hRepeUUJbhkyZaVX98qG-11" target="TVVVe7b4yLDSOndJgiz9-7">
          <mxGeometry relative="1" as="geometry" />
        </mxCell>
        <mxCell id="hRepeUUJbhkyZaVX98qG-35" style="edgeStyle=orthogonalEdgeStyle;rounded=0;orthogonalLoop=1;jettySize=auto;html=1;" edge="1" parent="1" source="hRepeUUJbhkyZaVX98qG-14" target="TVVVe7b4yLDSOndJgiz9-22">
          <mxGeometry relative="1" as="geometry" />
        </mxCell>
        <mxCell id="hRepeUUJbhkyZaVX98qG-36" style="edgeStyle=orthogonalEdgeStyle;rounded=0;orthogonalLoop=1;jettySize=auto;html=1;" edge="1" parent="1" source="hRepeUUJbhkyZaVX98qG-17" target="TVVVe7b4yLDSOndJgiz9-12">
          <mxGeometry relative="1" as="geometry" />
        </mxCell>
        <mxCell id="hRepeUUJbhkyZaVX98qG-37" style="edgeStyle=orthogonalEdgeStyle;rounded=0;orthogonalLoop=1;jettySize=auto;html=1;" edge="1" parent="1" source="hRepeUUJbhkyZaVX98qG-20" target="TVVVe7b4yLDSOndJgiz9-22">
          <mxGeometry relative="1" as="geometry" />
        </mxCell>
        <mxCell id="hRepeUUJbhkyZaVX98qG-38" style="edgeStyle=orthogonalEdgeStyle;rounded=0;orthogonalLoop=1;jettySize=auto;html=1;" edge="1" parent="1" source="hRepeUUJbhkyZaVX98qG-24" target="TVVVe7b4yLDSOndJgiz9-27">
          <mxGeometry relative="1" as="geometry" />
        </mxCell>
        <mxCell id="hRepeUUJbhkyZaVX98qG-40" style="edgeStyle=orthogonalEdgeStyle;rounded=0;orthogonalLoop=1;jettySize=auto;html=1;" edge="1" parent="1" source="hRepeUUJbhkyZaVX98qG-30" target="TVVVe7b4yLDSOndJgiz9-7">
          <mxGeometry relative="1" as="geometry" />
        </mxCell>
        <mxCell id="hRepeUUJbhkyZaVX98qG-46" style="edgeStyle=orthogonalEdgeStyle;rounded=0;orthogonalLoop=1;jettySize=auto;html=1;" edge="1" parent="1" source="hRepeUUJbhkyZaVX98qG-26" target="TVVVe7b4yLDSOndJgiz9-2">
          <mxGeometry relative="1" as="geometry" />
        </mxCell>
        <mxCell id="hRepeUUJbhkyZaVX98qG-47" style="edgeStyle=orthogonalEdgeStyle;rounded=0;orthogonalLoop=1;jettySize=auto;html=1;" edge="1" parent="1" source="hRepeUUJbhkyZaVX98qG-8" target="TVVVe7b4yLDSOndJgiz9-7">
          <mxGeometry relative="1" as="geometry" />
        </mxCell>
        <mxCell id="n6iq_N-X5ibMH6jy-DyW-1" value="&lt;font style=&quot;font-size: 72px;&quot;&gt;LivesIn&lt;/font&gt;" style="text;html=1;align=center;verticalAlign=middle;whiteSpace=wrap;rounded=0;" vertex="1" parent="1">
          <mxGeometry x="590" y="1000" width="60" height="30" as="geometry" />
        </mxCell>
      </root>
    </mxGraphModel>
  </diagram>
  <diagram name="Supports" id="JMplv41FTZDoOrXPS921">
    <mxGraphModel dx="681" dy="802" grid="1" gridSize="10" guides="1" tooltips="1" connect="1" arrows="1" fold="1" page="1" pageScale="1" pageWidth="827" pageHeight="1169" math="0" shadow="0">
      <root>
        <mxCell id="0" />
        <mxCell id="1" parent="0" />
        <mxCell id="25YcpxO3XDksh1OkAB8y-1" value="" style="group" parent="1" vertex="1" connectable="0">
          <mxGeometry x="290" y="90" width="100" height="100" as="geometry" />
        </mxCell>
        <mxCell id="25YcpxO3XDksh1OkAB8y-2" value="" style="rounded=0;whiteSpace=wrap;html=1;" parent="25YcpxO3XDksh1OkAB8y-1" vertex="1">
          <mxGeometry width="100" height="100" as="geometry" />
        </mxCell>
        <mxCell id="25YcpxO3XDksh1OkAB8y-3" value="2" style="rounded=0;whiteSpace=wrap;html=1;" parent="25YcpxO3XDksh1OkAB8y-1" vertex="1">
          <mxGeometry x="40" y="80" width="20" height="20" as="geometry" />
        </mxCell>
        <mxCell id="25YcpxO3XDksh1OkAB8y-4" value="2" style="rounded=0;whiteSpace=wrap;html=1;" parent="25YcpxO3XDksh1OkAB8y-1" vertex="1">
          <mxGeometry x="40" width="20" height="20" as="geometry" />
        </mxCell>
        <mxCell id="25YcpxO3XDksh1OkAB8y-5" value="Барселона" style="text;html=1;align=center;verticalAlign=middle;whiteSpace=wrap;rounded=0;" parent="25YcpxO3XDksh1OkAB8y-1" vertex="1">
          <mxGeometry x="20" y="35" width="60" height="30" as="geometry" />
        </mxCell>
        <mxCell id="25YcpxO3XDksh1OkAB8y-6" value="" style="group" parent="1" vertex="1" connectable="0">
          <mxGeometry x="144" y="510" width="100" height="100" as="geometry" />
        </mxCell>
        <mxCell id="25YcpxO3XDksh1OkAB8y-7" value="" style="rounded=0;whiteSpace=wrap;html=1;" parent="25YcpxO3XDksh1OkAB8y-6" vertex="1">
          <mxGeometry width="100" height="100" as="geometry" />
        </mxCell>
        <mxCell id="25YcpxO3XDksh1OkAB8y-8" value="1" style="rounded=0;whiteSpace=wrap;html=1;" parent="25YcpxO3XDksh1OkAB8y-6" vertex="1">
          <mxGeometry x="40" y="80" width="20" height="20" as="geometry" />
        </mxCell>
        <mxCell id="25YcpxO3XDksh1OkAB8y-9" value="1" style="rounded=0;whiteSpace=wrap;html=1;" parent="25YcpxO3XDksh1OkAB8y-6" vertex="1">
          <mxGeometry x="40" width="20" height="20" as="geometry" />
        </mxCell>
        <mxCell id="25YcpxO3XDksh1OkAB8y-10" value="Бавария" style="text;html=1;align=center;verticalAlign=middle;whiteSpace=wrap;rounded=0;" parent="25YcpxO3XDksh1OkAB8y-6" vertex="1">
          <mxGeometry x="20" y="35" width="60" height="30" as="geometry" />
        </mxCell>
        <mxCell id="25YcpxO3XDksh1OkAB8y-11" value="" style="group" parent="1" vertex="1" connectable="0">
          <mxGeometry x="540" y="810" width="100" height="100" as="geometry" />
        </mxCell>
        <mxCell id="25YcpxO3XDksh1OkAB8y-12" value="" style="rounded=0;whiteSpace=wrap;html=1;" parent="25YcpxO3XDksh1OkAB8y-11" vertex="1">
          <mxGeometry width="100" height="100" as="geometry" />
        </mxCell>
        <mxCell id="25YcpxO3XDksh1OkAB8y-13" value="3" style="rounded=0;whiteSpace=wrap;html=1;" parent="25YcpxO3XDksh1OkAB8y-11" vertex="1">
          <mxGeometry x="40" y="80" width="20" height="20" as="geometry" />
        </mxCell>
        <mxCell id="25YcpxO3XDksh1OkAB8y-14" value="3" style="rounded=0;whiteSpace=wrap;html=1;" parent="25YcpxO3XDksh1OkAB8y-11" vertex="1">
          <mxGeometry x="40" width="20" height="20" as="geometry" />
        </mxCell>
        <mxCell id="25YcpxO3XDksh1OkAB8y-15" value="Ювентус" style="text;html=1;align=center;verticalAlign=middle;whiteSpace=wrap;rounded=0;" parent="25YcpxO3XDksh1OkAB8y-11" vertex="1">
          <mxGeometry x="20" y="35" width="60" height="30" as="geometry" />
        </mxCell>
        <mxCell id="25YcpxO3XDksh1OkAB8y-16" value="" style="group" parent="1" vertex="1" connectable="0">
          <mxGeometry x="190" y="790" width="100" height="100" as="geometry" />
        </mxCell>
        <mxCell id="25YcpxO3XDksh1OkAB8y-17" value="" style="rounded=0;whiteSpace=wrap;html=1;" parent="25YcpxO3XDksh1OkAB8y-16" vertex="1">
          <mxGeometry width="100" height="100" as="geometry" />
        </mxCell>
        <mxCell id="25YcpxO3XDksh1OkAB8y-18" value="4" style="rounded=0;whiteSpace=wrap;html=1;" parent="25YcpxO3XDksh1OkAB8y-16" vertex="1">
          <mxGeometry x="40" y="80" width="20" height="20" as="geometry" />
        </mxCell>
        <mxCell id="25YcpxO3XDksh1OkAB8y-19" value="4" style="rounded=0;whiteSpace=wrap;html=1;" parent="25YcpxO3XDksh1OkAB8y-16" vertex="1">
          <mxGeometry x="40" width="20" height="20" as="geometry" />
        </mxCell>
        <mxCell id="25YcpxO3XDksh1OkAB8y-20" value="Манчестер&lt;div data-cur=&quot;cursor&quot;&gt;Юнайтед&lt;/div&gt;" style="text;html=1;align=center;verticalAlign=middle;whiteSpace=wrap;rounded=0;" parent="25YcpxO3XDksh1OkAB8y-16" vertex="1">
          <mxGeometry x="20" y="35" width="60" height="30" as="geometry" />
        </mxCell>
        <mxCell id="25YcpxO3XDksh1OkAB8y-21" value="" style="group" parent="1" vertex="1" connectable="0">
          <mxGeometry x="314" y="670" width="100" height="100" as="geometry" />
        </mxCell>
        <mxCell id="25YcpxO3XDksh1OkAB8y-22" value="" style="rounded=0;whiteSpace=wrap;html=1;" parent="25YcpxO3XDksh1OkAB8y-21" vertex="1">
          <mxGeometry width="100" height="100" as="geometry" />
        </mxCell>
        <mxCell id="25YcpxO3XDksh1OkAB8y-23" value="5" style="rounded=0;whiteSpace=wrap;html=1;" parent="25YcpxO3XDksh1OkAB8y-21" vertex="1">
          <mxGeometry x="40" y="80" width="20" height="20" as="geometry" />
        </mxCell>
        <mxCell id="25YcpxO3XDksh1OkAB8y-24" value="5" style="rounded=0;whiteSpace=wrap;html=1;" parent="25YcpxO3XDksh1OkAB8y-21" vertex="1">
          <mxGeometry x="40" width="20" height="20" as="geometry" />
        </mxCell>
        <mxCell id="25YcpxO3XDksh1OkAB8y-25" value="Пари&lt;div data-cur=&quot;cursor&quot;&gt;Сен-Жермен&lt;/div&gt;" style="text;html=1;align=center;verticalAlign=middle;whiteSpace=wrap;rounded=0;" parent="25YcpxO3XDksh1OkAB8y-21" vertex="1">
          <mxGeometry x="10" y="35" width="80" height="30" as="geometry" />
        </mxCell>
        <mxCell id="25YcpxO3XDksh1OkAB8y-26" value="" style="group" parent="1" vertex="1" connectable="0">
          <mxGeometry x="314" y="534" width="100" height="100" as="geometry" />
        </mxCell>
        <mxCell id="25YcpxO3XDksh1OkAB8y-27" value="" style="rounded=0;whiteSpace=wrap;html=1;" parent="25YcpxO3XDksh1OkAB8y-26" vertex="1">
          <mxGeometry width="100" height="100" as="geometry" />
        </mxCell>
        <mxCell id="25YcpxO3XDksh1OkAB8y-28" value="7" style="rounded=0;whiteSpace=wrap;html=1;" parent="25YcpxO3XDksh1OkAB8y-26" vertex="1">
          <mxGeometry x="40" y="80" width="20" height="20" as="geometry" />
        </mxCell>
        <mxCell id="25YcpxO3XDksh1OkAB8y-29" value="7" style="rounded=0;whiteSpace=wrap;html=1;" parent="25YcpxO3XDksh1OkAB8y-26" vertex="1">
          <mxGeometry x="40" width="20" height="20" as="geometry" />
        </mxCell>
        <mxCell id="25YcpxO3XDksh1OkAB8y-30" value="Аякс" style="text;html=1;align=center;verticalAlign=middle;whiteSpace=wrap;rounded=0;" parent="25YcpxO3XDksh1OkAB8y-26" vertex="1">
          <mxGeometry x="20" y="35" width="60" height="30" as="geometry" />
        </mxCell>
        <mxCell id="25YcpxO3XDksh1OkAB8y-31" value="" style="group" parent="1" vertex="1" connectable="0">
          <mxGeometry x="144" y="630" width="100" height="100" as="geometry" />
        </mxCell>
        <mxCell id="25YcpxO3XDksh1OkAB8y-32" value="" style="rounded=0;whiteSpace=wrap;html=1;" parent="25YcpxO3XDksh1OkAB8y-31" vertex="1">
          <mxGeometry width="100" height="100" as="geometry" />
        </mxCell>
        <mxCell id="25YcpxO3XDksh1OkAB8y-33" value="6" style="rounded=0;whiteSpace=wrap;html=1;" parent="25YcpxO3XDksh1OkAB8y-31" vertex="1">
          <mxGeometry x="40" y="80" width="20" height="20" as="geometry" />
        </mxCell>
        <mxCell id="25YcpxO3XDksh1OkAB8y-34" value="6" style="rounded=0;whiteSpace=wrap;html=1;" parent="25YcpxO3XDksh1OkAB8y-31" vertex="1">
          <mxGeometry x="40" width="20" height="20" as="geometry" />
        </mxCell>
        <mxCell id="25YcpxO3XDksh1OkAB8y-35" value="Порту" style="text;html=1;align=center;verticalAlign=middle;whiteSpace=wrap;rounded=0;" parent="25YcpxO3XDksh1OkAB8y-31" vertex="1">
          <mxGeometry x="20" y="35" width="60" height="30" as="geometry" />
        </mxCell>
        <mxCell id="25YcpxO3XDksh1OkAB8y-36" value="" style="group" parent="1" vertex="1" connectable="0">
          <mxGeometry x="380" y="280" width="100" height="100" as="geometry" />
        </mxCell>
        <mxCell id="25YcpxO3XDksh1OkAB8y-37" value="" style="rounded=0;whiteSpace=wrap;html=1;" parent="25YcpxO3XDksh1OkAB8y-36" vertex="1">
          <mxGeometry width="100" height="100" as="geometry" />
        </mxCell>
        <mxCell id="25YcpxO3XDksh1OkAB8y-38" value="8" style="rounded=0;whiteSpace=wrap;html=1;" parent="25YcpxO3XDksh1OkAB8y-36" vertex="1">
          <mxGeometry x="40" y="80" width="20" height="20" as="geometry" />
        </mxCell>
        <mxCell id="25YcpxO3XDksh1OkAB8y-39" value="8" style="rounded=0;whiteSpace=wrap;html=1;" parent="25YcpxO3XDksh1OkAB8y-36" vertex="1">
          <mxGeometry x="40" width="20" height="20" as="geometry" />
        </mxCell>
        <mxCell id="25YcpxO3XDksh1OkAB8y-40" value="Андерлехт" style="text;html=1;align=center;verticalAlign=middle;whiteSpace=wrap;rounded=0;" parent="25YcpxO3XDksh1OkAB8y-36" vertex="1">
          <mxGeometry x="20" y="35" width="60" height="30" as="geometry" />
        </mxCell>
        <mxCell id="25YcpxO3XDksh1OkAB8y-41" value="" style="group" parent="1" vertex="1" connectable="0">
          <mxGeometry x="474" y="630" width="100" height="100" as="geometry" />
        </mxCell>
        <mxCell id="25YcpxO3XDksh1OkAB8y-42" value="" style="rounded=0;whiteSpace=wrap;html=1;" parent="25YcpxO3XDksh1OkAB8y-41" vertex="1">
          <mxGeometry width="100" height="100" as="geometry" />
        </mxCell>
        <mxCell id="25YcpxO3XDksh1OkAB8y-43" value="9" style="rounded=0;whiteSpace=wrap;html=1;" parent="25YcpxO3XDksh1OkAB8y-41" vertex="1">
          <mxGeometry x="40" y="80" width="20" height="20" as="geometry" />
        </mxCell>
        <mxCell id="25YcpxO3XDksh1OkAB8y-44" value="9" style="rounded=0;whiteSpace=wrap;html=1;" parent="25YcpxO3XDksh1OkAB8y-41" vertex="1">
          <mxGeometry x="40" width="20" height="20" as="geometry" />
        </mxCell>
        <mxCell id="25YcpxO3XDksh1OkAB8y-45" value="РБ Зальцбург" style="text;html=1;align=center;verticalAlign=middle;whiteSpace=wrap;rounded=0;" parent="25YcpxO3XDksh1OkAB8y-41" vertex="1">
          <mxGeometry x="20" y="35" width="60" height="30" as="geometry" />
        </mxCell>
        <mxCell id="25YcpxO3XDksh1OkAB8y-46" value="" style="group" parent="1" vertex="1" connectable="0">
          <mxGeometry x="584" y="630" width="100" height="100" as="geometry" />
        </mxCell>
        <mxCell id="25YcpxO3XDksh1OkAB8y-47" value="" style="rounded=0;whiteSpace=wrap;html=1;" parent="25YcpxO3XDksh1OkAB8y-46" vertex="1">
          <mxGeometry width="100" height="100" as="geometry" />
        </mxCell>
        <mxCell id="25YcpxO3XDksh1OkAB8y-48" value="10" style="rounded=0;whiteSpace=wrap;html=1;" parent="25YcpxO3XDksh1OkAB8y-46" vertex="1">
          <mxGeometry x="40" y="80" width="20" height="20" as="geometry" />
        </mxCell>
        <mxCell id="25YcpxO3XDksh1OkAB8y-49" value="10" style="rounded=0;whiteSpace=wrap;html=1;" parent="25YcpxO3XDksh1OkAB8y-46" vertex="1">
          <mxGeometry x="40" width="20" height="20" as="geometry" />
        </mxCell>
        <mxCell id="25YcpxO3XDksh1OkAB8y-50" value="Базель" style="text;html=1;align=center;verticalAlign=middle;whiteSpace=wrap;rounded=0;" parent="25YcpxO3XDksh1OkAB8y-46" vertex="1">
          <mxGeometry x="10" y="35" width="80" height="30" as="geometry" />
        </mxCell>
        <mxCell id="1dz2EJX3h04HLqeL6zYP-32" value="" style="group" parent="1" vertex="1" connectable="0">
          <mxGeometry x="390" y="790.0031914893617" width="111.06400000000002" height="138.82978723404253" as="geometry" />
        </mxCell>
        <mxCell id="1dz2EJX3h04HLqeL6zYP-33" value="Алексей" style="shape=umlActor;verticalLabelPosition=bottom;verticalAlign=top;html=1;outlineConnect=0;container=0;" parent="1dz2EJX3h04HLqeL6zYP-32" vertex="1">
          <mxGeometry x="23.13833333333332" y="9.255319148936167" width="64.78733333333334" height="129.5744680851064" as="geometry" />
        </mxCell>
        <mxCell id="1dz2EJX3h04HLqeL6zYP-34" value="1" style="text;html=1;align=center;verticalAlign=middle;whiteSpace=wrap;rounded=0;container=0;" parent="1dz2EJX3h04HLqeL6zYP-32" vertex="1">
          <mxGeometry width="111.06400000000001" height="55.53191489361703" as="geometry" />
        </mxCell>
        <mxCell id="1dz2EJX3h04HLqeL6zYP-35" value="" style="group" parent="1" vertex="1" connectable="0">
          <mxGeometry x="30.00400000000002" y="760.0031914893617" width="111.06400000000002" height="138.82978723404253" as="geometry" />
        </mxCell>
        <mxCell id="1dz2EJX3h04HLqeL6zYP-36" value="Мария" style="shape=umlActor;verticalLabelPosition=bottom;verticalAlign=top;html=1;outlineConnect=0;container=0;" parent="1dz2EJX3h04HLqeL6zYP-35" vertex="1">
          <mxGeometry x="23.13833333333332" y="9.255319148936167" width="64.78733333333334" height="129.5744680851064" as="geometry" />
        </mxCell>
        <mxCell id="1dz2EJX3h04HLqeL6zYP-37" value="2" style="text;html=1;align=center;verticalAlign=middle;whiteSpace=wrap;rounded=0;container=0;" parent="1dz2EJX3h04HLqeL6zYP-35" vertex="1">
          <mxGeometry width="111.06400000000001" height="55.53191489361703" as="geometry" />
        </mxCell>
        <mxCell id="1dz2EJX3h04HLqeL6zYP-38" value="" style="group" parent="1" vertex="1" connectable="0">
          <mxGeometry x="18.938000000000045" y="70.00319148936168" width="111.06400000000002" height="138.82978723404253" as="geometry" />
        </mxCell>
        <mxCell id="1dz2EJX3h04HLqeL6zYP-39" value="Дмитрий" style="shape=umlActor;verticalLabelPosition=bottom;verticalAlign=top;html=1;outlineConnect=0;container=0;" parent="1dz2EJX3h04HLqeL6zYP-38" vertex="1">
          <mxGeometry x="23.13833333333332" y="9.255319148936167" width="64.78733333333334" height="129.5744680851064" as="geometry" />
        </mxCell>
        <mxCell id="1dz2EJX3h04HLqeL6zYP-40" value="3" style="text;html=1;align=center;verticalAlign=middle;whiteSpace=wrap;rounded=0;container=0;" parent="1dz2EJX3h04HLqeL6zYP-38" vertex="1">
          <mxGeometry width="111.06400000000001" height="55.53191489361703" as="geometry" />
        </mxCell>
        <mxCell id="1dz2EJX3h04HLqeL6zYP-41" value="" style="group" parent="1" vertex="1" connectable="0">
          <mxGeometry x="20.00200000000001" y="340.0031914893617" width="111.06399999999996" height="138.82978723404253" as="geometry" />
        </mxCell>
        <mxCell id="1dz2EJX3h04HLqeL6zYP-42" value="Екатерина" style="shape=umlActor;verticalLabelPosition=bottom;verticalAlign=top;html=1;outlineConnect=0;container=0;" parent="1dz2EJX3h04HLqeL6zYP-41" vertex="1">
          <mxGeometry x="23.13833333333332" y="9.255319148936167" width="64.78733333333334" height="129.5744680851064" as="geometry" />
        </mxCell>
        <mxCell id="1dz2EJX3h04HLqeL6zYP-43" value="4" style="text;html=1;align=center;verticalAlign=middle;whiteSpace=wrap;rounded=0;container=0;" parent="1dz2EJX3h04HLqeL6zYP-41" vertex="1">
          <mxGeometry width="111.06400000000001" height="55.53191489361703" as="geometry" />
        </mxCell>
        <mxCell id="1dz2EJX3h04HLqeL6zYP-44" value="" style="group" parent="1" vertex="1" connectable="0">
          <mxGeometry x="578.936" y="70.00319148936168" width="111.06399999999996" height="138.82978723404253" as="geometry" />
        </mxCell>
        <mxCell id="1dz2EJX3h04HLqeL6zYP-45" value="Сергей" style="shape=umlActor;verticalLabelPosition=bottom;verticalAlign=top;html=1;outlineConnect=0;container=0;" parent="1dz2EJX3h04HLqeL6zYP-44" vertex="1">
          <mxGeometry x="23.13833333333332" y="9.255319148936167" width="64.78733333333334" height="129.5744680851064" as="geometry" />
        </mxCell>
        <mxCell id="1dz2EJX3h04HLqeL6zYP-46" value="5" style="text;html=1;align=center;verticalAlign=middle;whiteSpace=wrap;rounded=0;container=0;" parent="1dz2EJX3h04HLqeL6zYP-44" vertex="1">
          <mxGeometry width="111.06400000000001" height="55.53191489361703" as="geometry" />
        </mxCell>
        <mxCell id="1dz2EJX3h04HLqeL6zYP-47" value="" style="group" parent="1" vertex="1" connectable="0">
          <mxGeometry x="710" y="610.0002127659575" width="111.06400000000002" height="138.82978723404256" as="geometry" />
        </mxCell>
        <mxCell id="1dz2EJX3h04HLqeL6zYP-48" value="Иван" style="shape=umlActor;verticalLabelPosition=bottom;verticalAlign=top;html=1;outlineConnect=0;container=0;" parent="1dz2EJX3h04HLqeL6zYP-47" vertex="1">
          <mxGeometry x="23.13833333333332" y="9.255319148936167" width="64.78733333333334" height="129.5744680851064" as="geometry" />
        </mxCell>
        <mxCell id="1dz2EJX3h04HLqeL6zYP-49" value="6" style="text;html=1;align=center;verticalAlign=middle;whiteSpace=wrap;rounded=0;container=0;" parent="1dz2EJX3h04HLqeL6zYP-47" vertex="1">
          <mxGeometry width="111.06400000000001" height="55.53191489361703" as="geometry" />
        </mxCell>
        <mxCell id="1dz2EJX3h04HLqeL6zYP-50" value="" style="group" parent="1" vertex="1" connectable="0">
          <mxGeometry x="247.06400000000002" y="283.62021276595743" width="111.06400000000002" height="138.82978723404256" as="geometry" />
        </mxCell>
        <mxCell id="1dz2EJX3h04HLqeL6zYP-51" value="Ольга" style="shape=umlActor;verticalLabelPosition=bottom;verticalAlign=top;html=1;outlineConnect=0;container=0;" parent="1dz2EJX3h04HLqeL6zYP-50" vertex="1">
          <mxGeometry x="23.13833333333332" y="9.255319148936167" width="64.78733333333334" height="129.5744680851064" as="geometry" />
        </mxCell>
        <mxCell id="1dz2EJX3h04HLqeL6zYP-52" value="7" style="text;html=1;align=center;verticalAlign=middle;whiteSpace=wrap;rounded=0;container=0;" parent="1dz2EJX3h04HLqeL6zYP-50" vertex="1">
          <mxGeometry width="111.06400000000001" height="55.53191489361703" as="geometry" />
        </mxCell>
        <mxCell id="1dz2EJX3h04HLqeL6zYP-53" value="" style="group" parent="1" vertex="1" connectable="0">
          <mxGeometry x="689.998" y="780.0002127659575" width="111.06400000000002" height="138.82978723404256" as="geometry" />
        </mxCell>
        <mxCell id="1dz2EJX3h04HLqeL6zYP-54" value="Константин" style="shape=umlActor;verticalLabelPosition=bottom;verticalAlign=top;html=1;outlineConnect=0;container=0;" parent="1dz2EJX3h04HLqeL6zYP-53" vertex="1">
          <mxGeometry x="23.13833333333332" y="9.255319148936167" width="64.78733333333334" height="129.5744680851064" as="geometry" />
        </mxCell>
        <mxCell id="1dz2EJX3h04HLqeL6zYP-55" value="8" style="text;html=1;align=center;verticalAlign=middle;whiteSpace=wrap;rounded=0;container=0;" parent="1dz2EJX3h04HLqeL6zYP-53" vertex="1">
          <mxGeometry width="111.06400000000001" height="55.53191489361703" as="geometry" />
        </mxCell>
        <mxCell id="1dz2EJX3h04HLqeL6zYP-56" value="" style="group" parent="1" vertex="1" connectable="0">
          <mxGeometry x="469.192" y="390.00021276595743" width="111.06399999999996" height="138.82978723404256" as="geometry" />
        </mxCell>
        <mxCell id="1dz2EJX3h04HLqeL6zYP-57" value="Юлия" style="shape=umlActor;verticalLabelPosition=bottom;verticalAlign=top;html=1;outlineConnect=0;container=0;" parent="1dz2EJX3h04HLqeL6zYP-56" vertex="1">
          <mxGeometry x="23.13833333333332" y="9.255319148936167" width="64.78733333333334" height="129.5744680851064" as="geometry" />
        </mxCell>
        <mxCell id="1dz2EJX3h04HLqeL6zYP-58" value="9" style="text;html=1;align=center;verticalAlign=middle;whiteSpace=wrap;rounded=0;container=0;" parent="1dz2EJX3h04HLqeL6zYP-56" vertex="1">
          <mxGeometry width="111.06400000000001" height="55.53191489361703" as="geometry" />
        </mxCell>
        <mxCell id="1dz2EJX3h04HLqeL6zYP-59" value="" style="group" parent="1" vertex="1" connectable="0">
          <mxGeometry x="609.9960000000001" y="250.00021276595743" width="111.06399999999996" height="138.82978723404256" as="geometry" />
        </mxCell>
        <mxCell id="1dz2EJX3h04HLqeL6zYP-60" value="Максим" style="shape=umlActor;verticalLabelPosition=bottom;verticalAlign=top;html=1;outlineConnect=0;container=0;" parent="1dz2EJX3h04HLqeL6zYP-59" vertex="1">
          <mxGeometry x="23.13833333333332" y="9.255319148936167" width="64.78733333333334" height="129.5744680851064" as="geometry" />
        </mxCell>
        <mxCell id="1dz2EJX3h04HLqeL6zYP-61" value="10" style="text;html=1;align=center;verticalAlign=middle;whiteSpace=wrap;rounded=0;container=0;" parent="1dz2EJX3h04HLqeL6zYP-59" vertex="1">
          <mxGeometry width="111.06400000000001" height="55.53191489361703" as="geometry" />
        </mxCell>
        <mxCell id="1dz2EJX3h04HLqeL6zYP-62" style="edgeStyle=orthogonalEdgeStyle;rounded=0;orthogonalLoop=1;jettySize=auto;html=1;" parent="1" source="1dz2EJX3h04HLqeL6zYP-33" target="25YcpxO3XDksh1OkAB8y-12" edge="1">
          <mxGeometry relative="1" as="geometry" />
        </mxCell>
        <mxCell id="wdSwivVy-KkLW6xRsfWv-1" style="edgeStyle=orthogonalEdgeStyle;rounded=0;orthogonalLoop=1;jettySize=auto;html=1;" parent="1" source="1dz2EJX3h04HLqeL6zYP-36" target="25YcpxO3XDksh1OkAB8y-17" edge="1">
          <mxGeometry relative="1" as="geometry" />
        </mxCell>
        <mxCell id="wdSwivVy-KkLW6xRsfWv-2" style="edgeStyle=orthogonalEdgeStyle;rounded=0;orthogonalLoop=1;jettySize=auto;html=1;" parent="1" source="1dz2EJX3h04HLqeL6zYP-39" target="25YcpxO3XDksh1OkAB8y-2" edge="1">
          <mxGeometry relative="1" as="geometry" />
        </mxCell>
        <mxCell id="wdSwivVy-KkLW6xRsfWv-3" style="edgeStyle=orthogonalEdgeStyle;rounded=0;orthogonalLoop=1;jettySize=auto;html=1;" parent="1" source="1dz2EJX3h04HLqeL6zYP-42" target="25YcpxO3XDksh1OkAB8y-7" edge="1">
          <mxGeometry relative="1" as="geometry" />
        </mxCell>
        <mxCell id="wdSwivVy-KkLW6xRsfWv-4" style="edgeStyle=orthogonalEdgeStyle;rounded=0;orthogonalLoop=1;jettySize=auto;html=1;" parent="1" source="1dz2EJX3h04HLqeL6zYP-45" target="25YcpxO3XDksh1OkAB8y-2" edge="1">
          <mxGeometry relative="1" as="geometry" />
        </mxCell>
        <mxCell id="wdSwivVy-KkLW6xRsfWv-5" style="edgeStyle=orthogonalEdgeStyle;rounded=0;orthogonalLoop=1;jettySize=auto;html=1;" parent="1" source="1dz2EJX3h04HLqeL6zYP-48" target="25YcpxO3XDksh1OkAB8y-47" edge="1">
          <mxGeometry relative="1" as="geometry" />
        </mxCell>
        <mxCell id="wdSwivVy-KkLW6xRsfWv-6" style="edgeStyle=orthogonalEdgeStyle;rounded=0;orthogonalLoop=1;jettySize=auto;html=1;" parent="1" source="1dz2EJX3h04HLqeL6zYP-51" target="25YcpxO3XDksh1OkAB8y-27" edge="1">
          <mxGeometry relative="1" as="geometry" />
        </mxCell>
        <mxCell id="wdSwivVy-KkLW6xRsfWv-7" style="edgeStyle=orthogonalEdgeStyle;rounded=0;orthogonalLoop=1;jettySize=auto;html=1;" parent="1" source="1dz2EJX3h04HLqeL6zYP-54" target="25YcpxO3XDksh1OkAB8y-12" edge="1">
          <mxGeometry relative="1" as="geometry" />
        </mxCell>
        <mxCell id="wdSwivVy-KkLW6xRsfWv-8" style="edgeStyle=orthogonalEdgeStyle;rounded=0;orthogonalLoop=1;jettySize=auto;html=1;" parent="1" source="1dz2EJX3h04HLqeL6zYP-57" target="25YcpxO3XDksh1OkAB8y-42" edge="1">
          <mxGeometry relative="1" as="geometry" />
        </mxCell>
        <mxCell id="wdSwivVy-KkLW6xRsfWv-9" style="edgeStyle=orthogonalEdgeStyle;rounded=0;orthogonalLoop=1;jettySize=auto;html=1;" parent="1" source="1dz2EJX3h04HLqeL6zYP-60" target="25YcpxO3XDksh1OkAB8y-37" edge="1">
          <mxGeometry relative="1" as="geometry" />
        </mxCell>
        <mxCell id="8m36GUO9_EoeHwJFzJr0-1" value="&lt;font style=&quot;font-size: 72px;&quot;&gt;Support&lt;/font&gt;" style="text;html=1;align=center;verticalAlign=middle;whiteSpace=wrap;rounded=0;" parent="1" vertex="1">
          <mxGeometry x="210" y="1010" width="60" height="30" as="geometry" />
        </mxCell>
      </root>
    </mxGraphModel>
  </diagram>
  <diagram name="LocatedIn" id="0yuMqevogo7QgC50vRHr">
    <mxGraphModel dx="681" dy="802" grid="1" gridSize="10" guides="1" tooltips="1" connect="1" arrows="1" fold="1" page="1" pageScale="1" pageWidth="827" pageHeight="1169" math="0" shadow="0">
      <root>
        <mxCell id="0" />
        <mxCell id="1" parent="0" />
        <mxCell id="X6oEN_ucVUjpvbbaBRix-1" value="" style="group" parent="1" vertex="1" connectable="0">
          <mxGeometry x="260" y="390" width="80" height="80" as="geometry" />
        </mxCell>
        <mxCell id="X6oEN_ucVUjpvbbaBRix-2" value="" style="ellipse;whiteSpace=wrap;html=1;aspect=fixed;" parent="X6oEN_ucVUjpvbbaBRix-1" vertex="1">
          <mxGeometry width="80" height="80" as="geometry" />
        </mxCell>
        <mxCell id="X6oEN_ucVUjpvbbaBRix-3" value="Европа" style="ellipse;whiteSpace=wrap;html=1;aspect=fixed;" parent="X6oEN_ucVUjpvbbaBRix-1" vertex="1">
          <mxGeometry x="15" y="30" width="50" height="50" as="geometry" />
        </mxCell>
        <mxCell id="X6oEN_ucVUjpvbbaBRix-4" value="&lt;font style=&quot;font-size: 10px;&quot;&gt;Германия&lt;/font&gt;" style="text;html=1;align=center;verticalAlign=middle;whiteSpace=wrap;rounded=0;" parent="X6oEN_ucVUjpvbbaBRix-1" vertex="1">
          <mxGeometry x="10" y="10" width="60" height="30" as="geometry" />
        </mxCell>
        <mxCell id="X6oEN_ucVUjpvbbaBRix-5" value="1" style="ellipse;whiteSpace=wrap;html=1;aspect=fixed;" parent="X6oEN_ucVUjpvbbaBRix-1" vertex="1">
          <mxGeometry x="30" width="20" height="20" as="geometry" />
        </mxCell>
        <mxCell id="X6oEN_ucVUjpvbbaBRix-6" value="" style="group" parent="1" vertex="1" connectable="0">
          <mxGeometry x="604" y="280" width="80" height="80" as="geometry" />
        </mxCell>
        <mxCell id="X6oEN_ucVUjpvbbaBRix-7" value="" style="ellipse;whiteSpace=wrap;html=1;aspect=fixed;" parent="X6oEN_ucVUjpvbbaBRix-6" vertex="1">
          <mxGeometry width="80" height="80" as="geometry" />
        </mxCell>
        <mxCell id="X6oEN_ucVUjpvbbaBRix-8" value="Европа" style="ellipse;whiteSpace=wrap;html=1;aspect=fixed;" parent="X6oEN_ucVUjpvbbaBRix-6" vertex="1">
          <mxGeometry x="15" y="30" width="50" height="50" as="geometry" />
        </mxCell>
        <mxCell id="X6oEN_ucVUjpvbbaBRix-9" value="&lt;font data-cur=&quot;cursor&quot; style=&quot;font-size: 10px;&quot;&gt;Испания&lt;/font&gt;" style="text;html=1;align=center;verticalAlign=middle;whiteSpace=wrap;rounded=0;" parent="X6oEN_ucVUjpvbbaBRix-6" vertex="1">
          <mxGeometry x="10" y="10" width="60" height="30" as="geometry" />
        </mxCell>
        <mxCell id="X6oEN_ucVUjpvbbaBRix-10" value="2" style="ellipse;whiteSpace=wrap;html=1;aspect=fixed;" parent="X6oEN_ucVUjpvbbaBRix-6" vertex="1">
          <mxGeometry x="30" width="20" height="20" as="geometry" />
        </mxCell>
        <mxCell id="X6oEN_ucVUjpvbbaBRix-11" value="" style="group" parent="1" vertex="1" connectable="0">
          <mxGeometry x="180" y="545" width="80" height="80" as="geometry" />
        </mxCell>
        <mxCell id="X6oEN_ucVUjpvbbaBRix-12" value="" style="ellipse;whiteSpace=wrap;html=1;aspect=fixed;" parent="X6oEN_ucVUjpvbbaBRix-11" vertex="1">
          <mxGeometry width="80" height="80" as="geometry" />
        </mxCell>
        <mxCell id="X6oEN_ucVUjpvbbaBRix-13" value="Европа" style="ellipse;whiteSpace=wrap;html=1;aspect=fixed;" parent="X6oEN_ucVUjpvbbaBRix-11" vertex="1">
          <mxGeometry x="15" y="30" width="50" height="50" as="geometry" />
        </mxCell>
        <mxCell id="X6oEN_ucVUjpvbbaBRix-14" value="&lt;font data-cur=&quot;cursor&quot; style=&quot;font-size: 10px;&quot;&gt;Италия&lt;/font&gt;" style="text;html=1;align=center;verticalAlign=middle;whiteSpace=wrap;rounded=0;" parent="X6oEN_ucVUjpvbbaBRix-11" vertex="1">
          <mxGeometry x="10" y="10" width="60" height="30" as="geometry" />
        </mxCell>
        <mxCell id="X6oEN_ucVUjpvbbaBRix-15" value="3" style="ellipse;whiteSpace=wrap;html=1;aspect=fixed;" parent="X6oEN_ucVUjpvbbaBRix-11" vertex="1">
          <mxGeometry x="30" width="20" height="20" as="geometry" />
        </mxCell>
        <mxCell id="X6oEN_ucVUjpvbbaBRix-16" value="" style="group" parent="1" vertex="1" connectable="0">
          <mxGeometry x="490" y="370" width="80" height="80" as="geometry" />
        </mxCell>
        <mxCell id="X6oEN_ucVUjpvbbaBRix-17" value="" style="ellipse;whiteSpace=wrap;html=1;aspect=fixed;" parent="X6oEN_ucVUjpvbbaBRix-16" vertex="1">
          <mxGeometry width="80" height="80" as="geometry" />
        </mxCell>
        <mxCell id="X6oEN_ucVUjpvbbaBRix-18" value="Европа" style="ellipse;whiteSpace=wrap;html=1;aspect=fixed;" parent="X6oEN_ucVUjpvbbaBRix-16" vertex="1">
          <mxGeometry x="15" y="30" width="50" height="50" as="geometry" />
        </mxCell>
        <mxCell id="X6oEN_ucVUjpvbbaBRix-19" value="&lt;font data-cur=&quot;cursor&quot; style=&quot;font-size: 10px;&quot;&gt;Англия&lt;/font&gt;" style="text;html=1;align=center;verticalAlign=middle;whiteSpace=wrap;rounded=0;" parent="X6oEN_ucVUjpvbbaBRix-16" vertex="1">
          <mxGeometry x="10" y="10" width="60" height="30" as="geometry" />
        </mxCell>
        <mxCell id="X6oEN_ucVUjpvbbaBRix-20" value="4" style="ellipse;whiteSpace=wrap;html=1;aspect=fixed;" parent="X6oEN_ucVUjpvbbaBRix-16" vertex="1">
          <mxGeometry x="30" width="20" height="20" as="geometry" />
        </mxCell>
        <mxCell id="X6oEN_ucVUjpvbbaBRix-21" value="" style="group" parent="1" vertex="1" connectable="0">
          <mxGeometry x="730" y="550" width="80" height="80" as="geometry" />
        </mxCell>
        <mxCell id="X6oEN_ucVUjpvbbaBRix-22" value="" style="ellipse;whiteSpace=wrap;html=1;aspect=fixed;" parent="X6oEN_ucVUjpvbbaBRix-21" vertex="1">
          <mxGeometry width="80" height="80" as="geometry" />
        </mxCell>
        <mxCell id="X6oEN_ucVUjpvbbaBRix-23" value="Европа" style="ellipse;whiteSpace=wrap;html=1;aspect=fixed;" parent="X6oEN_ucVUjpvbbaBRix-21" vertex="1">
          <mxGeometry x="15" y="30" width="50" height="50" as="geometry" />
        </mxCell>
        <mxCell id="X6oEN_ucVUjpvbbaBRix-24" value="&lt;font data-cur=&quot;cursor&quot; style=&quot;font-size: 10px;&quot;&gt;Франция&lt;/font&gt;" style="text;html=1;align=center;verticalAlign=middle;whiteSpace=wrap;rounded=0;" parent="X6oEN_ucVUjpvbbaBRix-21" vertex="1">
          <mxGeometry x="10" y="10" width="60" height="30" as="geometry" />
        </mxCell>
        <mxCell id="X6oEN_ucVUjpvbbaBRix-25" value="5" style="ellipse;whiteSpace=wrap;html=1;aspect=fixed;" parent="X6oEN_ucVUjpvbbaBRix-21" vertex="1">
          <mxGeometry x="30" width="20" height="20" as="geometry" />
        </mxCell>
        <mxCell id="X6oEN_ucVUjpvbbaBRix-26" value="" style="group" parent="1" vertex="1" connectable="0">
          <mxGeometry x="30" y="210" width="80" height="80" as="geometry" />
        </mxCell>
        <mxCell id="X6oEN_ucVUjpvbbaBRix-27" value="" style="ellipse;whiteSpace=wrap;html=1;aspect=fixed;" parent="X6oEN_ucVUjpvbbaBRix-26" vertex="1">
          <mxGeometry width="80" height="80" as="geometry" />
        </mxCell>
        <mxCell id="X6oEN_ucVUjpvbbaBRix-28" value="Европа" style="ellipse;whiteSpace=wrap;html=1;aspect=fixed;" parent="X6oEN_ucVUjpvbbaBRix-26" vertex="1">
          <mxGeometry x="15" y="30" width="50" height="50" as="geometry" />
        </mxCell>
        <mxCell id="X6oEN_ucVUjpvbbaBRix-29" value="&lt;font data-cur=&quot;cursor&quot; style=&quot;font-size: 10px;&quot;&gt;Португалия&lt;/font&gt;" style="text;html=1;align=center;verticalAlign=middle;whiteSpace=wrap;rounded=0;" parent="X6oEN_ucVUjpvbbaBRix-26" vertex="1">
          <mxGeometry x="10" y="10" width="60" height="30" as="geometry" />
        </mxCell>
        <mxCell id="X6oEN_ucVUjpvbbaBRix-30" value="6" style="ellipse;whiteSpace=wrap;html=1;aspect=fixed;" parent="X6oEN_ucVUjpvbbaBRix-26" vertex="1">
          <mxGeometry x="30" width="20" height="20" as="geometry" />
        </mxCell>
        <mxCell id="X6oEN_ucVUjpvbbaBRix-31" value="" style="group" parent="1" vertex="1" connectable="0">
          <mxGeometry x="20" y="670" width="80" height="80" as="geometry" />
        </mxCell>
        <mxCell id="X6oEN_ucVUjpvbbaBRix-32" value="" style="ellipse;whiteSpace=wrap;html=1;aspect=fixed;" parent="X6oEN_ucVUjpvbbaBRix-31" vertex="1">
          <mxGeometry width="80" height="80" as="geometry" />
        </mxCell>
        <mxCell id="X6oEN_ucVUjpvbbaBRix-33" value="Европа" style="ellipse;whiteSpace=wrap;html=1;aspect=fixed;" parent="X6oEN_ucVUjpvbbaBRix-31" vertex="1">
          <mxGeometry x="15" y="30" width="50" height="50" as="geometry" />
        </mxCell>
        <mxCell id="X6oEN_ucVUjpvbbaBRix-34" value="&lt;font data-cur=&quot;cursor&quot; style=&quot;font-size: 10px;&quot;&gt;Нидерланды&lt;/font&gt;" style="text;html=1;align=center;verticalAlign=middle;whiteSpace=wrap;rounded=0;" parent="X6oEN_ucVUjpvbbaBRix-31" vertex="1">
          <mxGeometry x="10" y="10" width="60" height="30" as="geometry" />
        </mxCell>
        <mxCell id="X6oEN_ucVUjpvbbaBRix-35" value="7" style="ellipse;whiteSpace=wrap;html=1;aspect=fixed;" parent="X6oEN_ucVUjpvbbaBRix-31" vertex="1">
          <mxGeometry x="30" width="20" height="20" as="geometry" />
        </mxCell>
        <mxCell id="X6oEN_ucVUjpvbbaBRix-36" value="" style="group" parent="1" vertex="1" connectable="0">
          <mxGeometry x="374" y="810" width="80" height="80" as="geometry" />
        </mxCell>
        <mxCell id="X6oEN_ucVUjpvbbaBRix-37" value="" style="ellipse;whiteSpace=wrap;html=1;aspect=fixed;" parent="X6oEN_ucVUjpvbbaBRix-36" vertex="1">
          <mxGeometry width="80" height="80" as="geometry" />
        </mxCell>
        <mxCell id="X6oEN_ucVUjpvbbaBRix-38" value="Европа" style="ellipse;whiteSpace=wrap;html=1;aspect=fixed;" parent="X6oEN_ucVUjpvbbaBRix-36" vertex="1">
          <mxGeometry x="15" y="30" width="50" height="50" as="geometry" />
        </mxCell>
        <mxCell id="X6oEN_ucVUjpvbbaBRix-39" value="&lt;font data-cur=&quot;cursor&quot; style=&quot;font-size: 10px;&quot;&gt;Бельгия&lt;/font&gt;" style="text;html=1;align=center;verticalAlign=middle;whiteSpace=wrap;rounded=0;" parent="X6oEN_ucVUjpvbbaBRix-36" vertex="1">
          <mxGeometry x="10" y="10" width="60" height="30" as="geometry" />
        </mxCell>
        <mxCell id="X6oEN_ucVUjpvbbaBRix-40" value="8" style="ellipse;whiteSpace=wrap;html=1;aspect=fixed;" parent="X6oEN_ucVUjpvbbaBRix-36" vertex="1">
          <mxGeometry x="30" width="20" height="20" as="geometry" />
        </mxCell>
        <mxCell id="X6oEN_ucVUjpvbbaBRix-41" value="" style="group" parent="1" vertex="1" connectable="0">
          <mxGeometry x="530" y="820" width="80" height="80" as="geometry" />
        </mxCell>
        <mxCell id="X6oEN_ucVUjpvbbaBRix-42" value="" style="ellipse;whiteSpace=wrap;html=1;aspect=fixed;" parent="X6oEN_ucVUjpvbbaBRix-41" vertex="1">
          <mxGeometry width="80" height="80" as="geometry" />
        </mxCell>
        <mxCell id="X6oEN_ucVUjpvbbaBRix-43" value="Европа" style="ellipse;whiteSpace=wrap;html=1;aspect=fixed;" parent="X6oEN_ucVUjpvbbaBRix-41" vertex="1">
          <mxGeometry x="15" y="30" width="50" height="50" as="geometry" />
        </mxCell>
        <mxCell id="X6oEN_ucVUjpvbbaBRix-44" value="&lt;font data-cur=&quot;cursor&quot; style=&quot;font-size: 10px;&quot;&gt;Австрия&lt;/font&gt;" style="text;html=1;align=center;verticalAlign=middle;whiteSpace=wrap;rounded=0;" parent="X6oEN_ucVUjpvbbaBRix-41" vertex="1">
          <mxGeometry x="10" y="10" width="60" height="30" as="geometry" />
        </mxCell>
        <mxCell id="X6oEN_ucVUjpvbbaBRix-45" value="9" style="ellipse;whiteSpace=wrap;html=1;aspect=fixed;" parent="X6oEN_ucVUjpvbbaBRix-41" vertex="1">
          <mxGeometry x="30" width="20" height="20" as="geometry" />
        </mxCell>
        <mxCell id="X6oEN_ucVUjpvbbaBRix-46" value="" style="group" parent="1" vertex="1" connectable="0">
          <mxGeometry x="660" y="840" width="80" height="80" as="geometry" />
        </mxCell>
        <mxCell id="X6oEN_ucVUjpvbbaBRix-47" value="" style="ellipse;whiteSpace=wrap;html=1;aspect=fixed;" parent="X6oEN_ucVUjpvbbaBRix-46" vertex="1">
          <mxGeometry width="80" height="80" as="geometry" />
        </mxCell>
        <mxCell id="X6oEN_ucVUjpvbbaBRix-48" value="Европа" style="ellipse;whiteSpace=wrap;html=1;aspect=fixed;" parent="X6oEN_ucVUjpvbbaBRix-46" vertex="1">
          <mxGeometry x="15" y="30" width="50" height="50" as="geometry" />
        </mxCell>
        <mxCell id="X6oEN_ucVUjpvbbaBRix-49" value="&lt;span data-cur=&quot;cursor&quot; style=&quot;font-size: 10px;&quot;&gt;Швейцария&lt;/span&gt;" style="text;html=1;align=center;verticalAlign=middle;whiteSpace=wrap;rounded=0;" parent="X6oEN_ucVUjpvbbaBRix-46" vertex="1">
          <mxGeometry x="10" y="10" width="60" height="30" as="geometry" />
        </mxCell>
        <mxCell id="X6oEN_ucVUjpvbbaBRix-50" value="10" style="ellipse;whiteSpace=wrap;html=1;aspect=fixed;" parent="X6oEN_ucVUjpvbbaBRix-46" vertex="1">
          <mxGeometry x="30" width="20" height="20" as="geometry" />
        </mxCell>
        <mxCell id="uHvnQRZ0ot6qDNJMtJ5I-1" value="" style="group" parent="1" vertex="1" connectable="0">
          <mxGeometry x="424" y="140" width="100" height="100" as="geometry" />
        </mxCell>
        <mxCell id="uHvnQRZ0ot6qDNJMtJ5I-2" value="" style="rounded=0;whiteSpace=wrap;html=1;" parent="uHvnQRZ0ot6qDNJMtJ5I-1" vertex="1">
          <mxGeometry width="100" height="100" as="geometry" />
        </mxCell>
        <mxCell id="uHvnQRZ0ot6qDNJMtJ5I-3" value="2" style="rounded=0;whiteSpace=wrap;html=1;" parent="uHvnQRZ0ot6qDNJMtJ5I-1" vertex="1">
          <mxGeometry x="40" y="80" width="20" height="20" as="geometry" />
        </mxCell>
        <mxCell id="uHvnQRZ0ot6qDNJMtJ5I-4" value="2" style="rounded=0;whiteSpace=wrap;html=1;" parent="uHvnQRZ0ot6qDNJMtJ5I-1" vertex="1">
          <mxGeometry x="40" width="20" height="20" as="geometry" />
        </mxCell>
        <mxCell id="uHvnQRZ0ot6qDNJMtJ5I-5" value="Барселона" style="text;html=1;align=center;verticalAlign=middle;whiteSpace=wrap;rounded=0;" parent="uHvnQRZ0ot6qDNJMtJ5I-1" vertex="1">
          <mxGeometry x="20" y="35" width="60" height="30" as="geometry" />
        </mxCell>
        <mxCell id="uHvnQRZ0ot6qDNJMtJ5I-6" value="" style="group" parent="1" vertex="1" connectable="0">
          <mxGeometry x="30" y="390" width="100" height="100" as="geometry" />
        </mxCell>
        <mxCell id="uHvnQRZ0ot6qDNJMtJ5I-7" value="" style="rounded=0;whiteSpace=wrap;html=1;" parent="uHvnQRZ0ot6qDNJMtJ5I-6" vertex="1">
          <mxGeometry width="100" height="100" as="geometry" />
        </mxCell>
        <mxCell id="uHvnQRZ0ot6qDNJMtJ5I-8" value="1" style="rounded=0;whiteSpace=wrap;html=1;" parent="uHvnQRZ0ot6qDNJMtJ5I-6" vertex="1">
          <mxGeometry x="40" y="80" width="20" height="20" as="geometry" />
        </mxCell>
        <mxCell id="uHvnQRZ0ot6qDNJMtJ5I-9" value="1" style="rounded=0;whiteSpace=wrap;html=1;" parent="uHvnQRZ0ot6qDNJMtJ5I-6" vertex="1">
          <mxGeometry x="40" width="20" height="20" as="geometry" />
        </mxCell>
        <mxCell id="uHvnQRZ0ot6qDNJMtJ5I-10" value="Бавария" style="text;html=1;align=center;verticalAlign=middle;whiteSpace=wrap;rounded=0;" parent="uHvnQRZ0ot6qDNJMtJ5I-6" vertex="1">
          <mxGeometry x="20" y="35" width="60" height="30" as="geometry" />
        </mxCell>
        <mxCell id="uHvnQRZ0ot6qDNJMtJ5I-11" value="" style="group" parent="1" vertex="1" connectable="0">
          <mxGeometry x="364" y="540" width="100" height="100" as="geometry" />
        </mxCell>
        <mxCell id="uHvnQRZ0ot6qDNJMtJ5I-12" value="" style="rounded=0;whiteSpace=wrap;html=1;" parent="uHvnQRZ0ot6qDNJMtJ5I-11" vertex="1">
          <mxGeometry width="100" height="100" as="geometry" />
        </mxCell>
        <mxCell id="uHvnQRZ0ot6qDNJMtJ5I-13" value="3" style="rounded=0;whiteSpace=wrap;html=1;" parent="uHvnQRZ0ot6qDNJMtJ5I-11" vertex="1">
          <mxGeometry x="40" y="80" width="20" height="20" as="geometry" />
        </mxCell>
        <mxCell id="uHvnQRZ0ot6qDNJMtJ5I-14" value="3" style="rounded=0;whiteSpace=wrap;html=1;" parent="uHvnQRZ0ot6qDNJMtJ5I-11" vertex="1">
          <mxGeometry x="40" width="20" height="20" as="geometry" />
        </mxCell>
        <mxCell id="uHvnQRZ0ot6qDNJMtJ5I-15" value="Ювентус" style="text;html=1;align=center;verticalAlign=middle;whiteSpace=wrap;rounded=0;" parent="uHvnQRZ0ot6qDNJMtJ5I-11" vertex="1">
          <mxGeometry x="20" y="35" width="60" height="30" as="geometry" />
        </mxCell>
        <mxCell id="uHvnQRZ0ot6qDNJMtJ5I-16" value="" style="group" parent="1" vertex="1" connectable="0">
          <mxGeometry x="474" y="540" width="100" height="100" as="geometry" />
        </mxCell>
        <mxCell id="uHvnQRZ0ot6qDNJMtJ5I-17" value="" style="rounded=0;whiteSpace=wrap;html=1;" parent="uHvnQRZ0ot6qDNJMtJ5I-16" vertex="1">
          <mxGeometry width="100" height="100" as="geometry" />
        </mxCell>
        <mxCell id="uHvnQRZ0ot6qDNJMtJ5I-18" value="4" style="rounded=0;whiteSpace=wrap;html=1;" parent="uHvnQRZ0ot6qDNJMtJ5I-16" vertex="1">
          <mxGeometry x="40" y="80" width="20" height="20" as="geometry" />
        </mxCell>
        <mxCell id="uHvnQRZ0ot6qDNJMtJ5I-19" value="4" style="rounded=0;whiteSpace=wrap;html=1;" parent="uHvnQRZ0ot6qDNJMtJ5I-16" vertex="1">
          <mxGeometry x="40" width="20" height="20" as="geometry" />
        </mxCell>
        <mxCell id="uHvnQRZ0ot6qDNJMtJ5I-20" value="Манчестер&lt;div data-cur=&quot;cursor&quot;&gt;Юнайтед&lt;/div&gt;" style="text;html=1;align=center;verticalAlign=middle;whiteSpace=wrap;rounded=0;" parent="uHvnQRZ0ot6qDNJMtJ5I-16" vertex="1">
          <mxGeometry x="20" y="35" width="60" height="30" as="geometry" />
        </mxCell>
        <mxCell id="uHvnQRZ0ot6qDNJMtJ5I-21" value="" style="group" parent="1" vertex="1" connectable="0">
          <mxGeometry x="584" y="540" width="100" height="100" as="geometry" />
        </mxCell>
        <mxCell id="uHvnQRZ0ot6qDNJMtJ5I-22" value="" style="rounded=0;whiteSpace=wrap;html=1;" parent="uHvnQRZ0ot6qDNJMtJ5I-21" vertex="1">
          <mxGeometry width="100" height="100" as="geometry" />
        </mxCell>
        <mxCell id="uHvnQRZ0ot6qDNJMtJ5I-23" value="5" style="rounded=0;whiteSpace=wrap;html=1;" parent="uHvnQRZ0ot6qDNJMtJ5I-21" vertex="1">
          <mxGeometry x="40" y="80" width="20" height="20" as="geometry" />
        </mxCell>
        <mxCell id="uHvnQRZ0ot6qDNJMtJ5I-24" value="5" style="rounded=0;whiteSpace=wrap;html=1;" parent="uHvnQRZ0ot6qDNJMtJ5I-21" vertex="1">
          <mxGeometry x="40" width="20" height="20" as="geometry" />
        </mxCell>
        <mxCell id="uHvnQRZ0ot6qDNJMtJ5I-25" value="Пари&lt;div data-cur=&quot;cursor&quot;&gt;Сен-Жермен&lt;/div&gt;" style="text;html=1;align=center;verticalAlign=middle;whiteSpace=wrap;rounded=0;" parent="uHvnQRZ0ot6qDNJMtJ5I-21" vertex="1">
          <mxGeometry x="10" y="35" width="80" height="30" as="geometry" />
        </mxCell>
        <mxCell id="uHvnQRZ0ot6qDNJMtJ5I-26" value="" style="group" parent="1" vertex="1" connectable="0">
          <mxGeometry x="254" y="660" width="100" height="100" as="geometry" />
        </mxCell>
        <mxCell id="uHvnQRZ0ot6qDNJMtJ5I-27" value="" style="rounded=0;whiteSpace=wrap;html=1;" parent="uHvnQRZ0ot6qDNJMtJ5I-26" vertex="1">
          <mxGeometry width="100" height="100" as="geometry" />
        </mxCell>
        <mxCell id="uHvnQRZ0ot6qDNJMtJ5I-28" value="7" style="rounded=0;whiteSpace=wrap;html=1;" parent="uHvnQRZ0ot6qDNJMtJ5I-26" vertex="1">
          <mxGeometry x="40" y="80" width="20" height="20" as="geometry" />
        </mxCell>
        <mxCell id="uHvnQRZ0ot6qDNJMtJ5I-29" value="7" style="rounded=0;whiteSpace=wrap;html=1;" parent="uHvnQRZ0ot6qDNJMtJ5I-26" vertex="1">
          <mxGeometry x="40" width="20" height="20" as="geometry" />
        </mxCell>
        <mxCell id="uHvnQRZ0ot6qDNJMtJ5I-30" value="Аякс" style="text;html=1;align=center;verticalAlign=middle;whiteSpace=wrap;rounded=0;" parent="uHvnQRZ0ot6qDNJMtJ5I-26" vertex="1">
          <mxGeometry x="20" y="35" width="60" height="30" as="geometry" />
        </mxCell>
        <mxCell id="uHvnQRZ0ot6qDNJMtJ5I-31" value="" style="group" parent="1" vertex="1" connectable="0">
          <mxGeometry x="240" y="200" width="100" height="100" as="geometry" />
        </mxCell>
        <mxCell id="uHvnQRZ0ot6qDNJMtJ5I-32" value="" style="rounded=0;whiteSpace=wrap;html=1;" parent="uHvnQRZ0ot6qDNJMtJ5I-31" vertex="1">
          <mxGeometry width="100" height="100" as="geometry" />
        </mxCell>
        <mxCell id="uHvnQRZ0ot6qDNJMtJ5I-33" value="6" style="rounded=0;whiteSpace=wrap;html=1;" parent="uHvnQRZ0ot6qDNJMtJ5I-31" vertex="1">
          <mxGeometry x="40" y="80" width="20" height="20" as="geometry" />
        </mxCell>
        <mxCell id="uHvnQRZ0ot6qDNJMtJ5I-34" value="6" style="rounded=0;whiteSpace=wrap;html=1;" parent="uHvnQRZ0ot6qDNJMtJ5I-31" vertex="1">
          <mxGeometry x="40" width="20" height="20" as="geometry" />
        </mxCell>
        <mxCell id="uHvnQRZ0ot6qDNJMtJ5I-35" value="Порту" style="text;html=1;align=center;verticalAlign=middle;whiteSpace=wrap;rounded=0;" parent="uHvnQRZ0ot6qDNJMtJ5I-31" vertex="1">
          <mxGeometry x="20" y="35" width="60" height="30" as="geometry" />
        </mxCell>
        <mxCell id="uHvnQRZ0ot6qDNJMtJ5I-36" value="" style="group" parent="1" vertex="1" connectable="0">
          <mxGeometry x="364" y="660" width="100" height="100" as="geometry" />
        </mxCell>
        <mxCell id="uHvnQRZ0ot6qDNJMtJ5I-37" value="" style="rounded=0;whiteSpace=wrap;html=1;" parent="uHvnQRZ0ot6qDNJMtJ5I-36" vertex="1">
          <mxGeometry width="100" height="100" as="geometry" />
        </mxCell>
        <mxCell id="uHvnQRZ0ot6qDNJMtJ5I-38" value="8" style="rounded=0;whiteSpace=wrap;html=1;" parent="uHvnQRZ0ot6qDNJMtJ5I-36" vertex="1">
          <mxGeometry x="40" y="80" width="20" height="20" as="geometry" />
        </mxCell>
        <mxCell id="uHvnQRZ0ot6qDNJMtJ5I-39" value="8" style="rounded=0;whiteSpace=wrap;html=1;" parent="uHvnQRZ0ot6qDNJMtJ5I-36" vertex="1">
          <mxGeometry x="40" width="20" height="20" as="geometry" />
        </mxCell>
        <mxCell id="uHvnQRZ0ot6qDNJMtJ5I-40" value="Андерлехт" style="text;html=1;align=center;verticalAlign=middle;whiteSpace=wrap;rounded=0;" parent="uHvnQRZ0ot6qDNJMtJ5I-36" vertex="1">
          <mxGeometry x="20" y="35" width="60" height="30" as="geometry" />
        </mxCell>
        <mxCell id="uHvnQRZ0ot6qDNJMtJ5I-41" value="" style="group" parent="1" vertex="1" connectable="0">
          <mxGeometry x="474" y="660" width="100" height="100" as="geometry" />
        </mxCell>
        <mxCell id="uHvnQRZ0ot6qDNJMtJ5I-42" value="" style="rounded=0;whiteSpace=wrap;html=1;" parent="uHvnQRZ0ot6qDNJMtJ5I-41" vertex="1">
          <mxGeometry width="100" height="100" as="geometry" />
        </mxCell>
        <mxCell id="uHvnQRZ0ot6qDNJMtJ5I-43" value="9" style="rounded=0;whiteSpace=wrap;html=1;" parent="uHvnQRZ0ot6qDNJMtJ5I-41" vertex="1">
          <mxGeometry x="40" y="80" width="20" height="20" as="geometry" />
        </mxCell>
        <mxCell id="uHvnQRZ0ot6qDNJMtJ5I-44" value="9" style="rounded=0;whiteSpace=wrap;html=1;" parent="uHvnQRZ0ot6qDNJMtJ5I-41" vertex="1">
          <mxGeometry x="40" width="20" height="20" as="geometry" />
        </mxCell>
        <mxCell id="uHvnQRZ0ot6qDNJMtJ5I-45" value="РБ Зальцбург" style="text;html=1;align=center;verticalAlign=middle;whiteSpace=wrap;rounded=0;" parent="uHvnQRZ0ot6qDNJMtJ5I-41" vertex="1">
          <mxGeometry x="20" y="35" width="60" height="30" as="geometry" />
        </mxCell>
        <mxCell id="uHvnQRZ0ot6qDNJMtJ5I-46" value="" style="group" parent="1" vertex="1" connectable="0">
          <mxGeometry x="584" y="660" width="100" height="100" as="geometry" />
        </mxCell>
        <mxCell id="uHvnQRZ0ot6qDNJMtJ5I-47" value="" style="rounded=0;whiteSpace=wrap;html=1;" parent="uHvnQRZ0ot6qDNJMtJ5I-46" vertex="1">
          <mxGeometry width="100" height="100" as="geometry" />
        </mxCell>
        <mxCell id="uHvnQRZ0ot6qDNJMtJ5I-48" value="10" style="rounded=0;whiteSpace=wrap;html=1;" parent="uHvnQRZ0ot6qDNJMtJ5I-46" vertex="1">
          <mxGeometry x="40" y="80" width="20" height="20" as="geometry" />
        </mxCell>
        <mxCell id="uHvnQRZ0ot6qDNJMtJ5I-49" value="10" style="rounded=0;whiteSpace=wrap;html=1;" parent="uHvnQRZ0ot6qDNJMtJ5I-46" vertex="1">
          <mxGeometry x="40" width="20" height="20" as="geometry" />
        </mxCell>
        <mxCell id="uHvnQRZ0ot6qDNJMtJ5I-50" value="Базель" style="text;html=1;align=center;verticalAlign=middle;whiteSpace=wrap;rounded=0;" parent="uHvnQRZ0ot6qDNJMtJ5I-46" vertex="1">
          <mxGeometry x="10" y="35" width="80" height="30" as="geometry" />
        </mxCell>
        <mxCell id="uHvnQRZ0ot6qDNJMtJ5I-51" style="edgeStyle=orthogonalEdgeStyle;rounded=0;orthogonalLoop=1;jettySize=auto;html=1;" parent="1" source="X6oEN_ucVUjpvbbaBRix-3" target="uHvnQRZ0ot6qDNJMtJ5I-7" edge="1">
          <mxGeometry relative="1" as="geometry" />
        </mxCell>
        <mxCell id="uHvnQRZ0ot6qDNJMtJ5I-53" style="edgeStyle=orthogonalEdgeStyle;rounded=0;orthogonalLoop=1;jettySize=auto;html=1;" parent="1" source="X6oEN_ucVUjpvbbaBRix-8" target="uHvnQRZ0ot6qDNJMtJ5I-2" edge="1">
          <mxGeometry relative="1" as="geometry" />
        </mxCell>
        <mxCell id="uHvnQRZ0ot6qDNJMtJ5I-54" style="edgeStyle=orthogonalEdgeStyle;rounded=0;orthogonalLoop=1;jettySize=auto;html=1;" parent="1" source="X6oEN_ucVUjpvbbaBRix-13" target="uHvnQRZ0ot6qDNJMtJ5I-12" edge="1">
          <mxGeometry relative="1" as="geometry" />
        </mxCell>
        <mxCell id="uHvnQRZ0ot6qDNJMtJ5I-55" style="edgeStyle=orthogonalEdgeStyle;rounded=0;orthogonalLoop=1;jettySize=auto;html=1;" parent="1" source="X6oEN_ucVUjpvbbaBRix-18" target="uHvnQRZ0ot6qDNJMtJ5I-17" edge="1">
          <mxGeometry relative="1" as="geometry" />
        </mxCell>
        <mxCell id="uHvnQRZ0ot6qDNJMtJ5I-58" style="edgeStyle=orthogonalEdgeStyle;rounded=0;orthogonalLoop=1;jettySize=auto;html=1;" parent="1" source="X6oEN_ucVUjpvbbaBRix-22" target="uHvnQRZ0ot6qDNJMtJ5I-22" edge="1">
          <mxGeometry relative="1" as="geometry" />
        </mxCell>
        <mxCell id="uHvnQRZ0ot6qDNJMtJ5I-61" style="edgeStyle=orthogonalEdgeStyle;rounded=0;orthogonalLoop=1;jettySize=auto;html=1;" parent="1" source="X6oEN_ucVUjpvbbaBRix-32" target="uHvnQRZ0ot6qDNJMtJ5I-27" edge="1">
          <mxGeometry relative="1" as="geometry" />
        </mxCell>
        <mxCell id="uHvnQRZ0ot6qDNJMtJ5I-63" style="edgeStyle=orthogonalEdgeStyle;rounded=0;orthogonalLoop=1;jettySize=auto;html=1;" parent="1" source="X6oEN_ucVUjpvbbaBRix-37" target="uHvnQRZ0ot6qDNJMtJ5I-37" edge="1">
          <mxGeometry relative="1" as="geometry" />
        </mxCell>
        <mxCell id="uHvnQRZ0ot6qDNJMtJ5I-67" style="edgeStyle=orthogonalEdgeStyle;rounded=0;orthogonalLoop=1;jettySize=auto;html=1;" parent="1" source="X6oEN_ucVUjpvbbaBRix-44" target="uHvnQRZ0ot6qDNJMtJ5I-42" edge="1">
          <mxGeometry relative="1" as="geometry" />
        </mxCell>
        <mxCell id="uHvnQRZ0ot6qDNJMtJ5I-69" style="edgeStyle=orthogonalEdgeStyle;rounded=0;orthogonalLoop=1;jettySize=auto;html=1;" parent="1" source="X6oEN_ucVUjpvbbaBRix-50" target="uHvnQRZ0ot6qDNJMtJ5I-47" edge="1">
          <mxGeometry relative="1" as="geometry" />
        </mxCell>
        <mxCell id="uHvnQRZ0ot6qDNJMtJ5I-70" style="edgeStyle=orthogonalEdgeStyle;rounded=0;orthogonalLoop=1;jettySize=auto;html=1;" parent="1" source="X6oEN_ucVUjpvbbaBRix-29" target="uHvnQRZ0ot6qDNJMtJ5I-32" edge="1">
          <mxGeometry relative="1" as="geometry" />
        </mxCell>
        <mxCell id="uHvnQRZ0ot6qDNJMtJ5I-72" value="&lt;font style=&quot;font-size: 72px;&quot;&gt;LocatedIn&lt;/font&gt;" style="text;html=1;align=center;verticalAlign=middle;whiteSpace=wrap;rounded=0;" parent="1" vertex="1">
          <mxGeometry x="350" y="1000" width="60" height="30" as="geometry" />
        </mxCell>
      </root>
    </mxGraphModel>
  </diagram>
</mxfile>
